%TF.GenerationSoftware,KiCad,Pcbnew,7.0.1-0*%
%TF.CreationDate,2023-03-23T13:45:05+11:00*%
%TF.ProjectId,ArduinoEnvironmentMonitorShield,41726475-696e-46f4-956e-7669726f6e6d,rev?*%
%TF.SameCoordinates,Original*%
%TF.FileFunction,Copper,L1,Top*%
%TF.FilePolarity,Positive*%
%FSLAX46Y46*%
G04 Gerber Fmt 4.6, Leading zero omitted, Abs format (unit mm)*
G04 Created by KiCad (PCBNEW 7.0.1-0) date 2023-03-23 13:45:05*
%MOMM*%
%LPD*%
G01*
G04 APERTURE LIST*
%TA.AperFunction,ComponentPad*%
%ADD10R,1.700000X1.700000*%
%TD*%
%TA.AperFunction,ComponentPad*%
%ADD11O,1.700000X1.700000*%
%TD*%
%TA.AperFunction,ComponentPad*%
%ADD12R,1.500000X1.500000*%
%TD*%
%TA.AperFunction,ComponentPad*%
%ADD13C,1.500000*%
%TD*%
%TA.AperFunction,ComponentPad*%
%ADD14C,1.600000*%
%TD*%
%TA.AperFunction,ComponentPad*%
%ADD15O,1.600000X1.600000*%
%TD*%
%TA.AperFunction,ComponentPad*%
%ADD16C,1.400000*%
%TD*%
%TA.AperFunction,ComponentPad*%
%ADD17O,1.400000X1.400000*%
%TD*%
%TA.AperFunction,ComponentPad*%
%ADD18R,1.800000X1.800000*%
%TD*%
%TA.AperFunction,ComponentPad*%
%ADD19C,1.800000*%
%TD*%
%TA.AperFunction,ComponentPad*%
%ADD20C,1.440000*%
%TD*%
%TA.AperFunction,ViaPad*%
%ADD21C,0.600000*%
%TD*%
%TA.AperFunction,Conductor*%
%ADD22C,0.400000*%
%TD*%
%TA.AperFunction,Conductor*%
%ADD23C,0.250000*%
%TD*%
G04 APERTURE END LIST*
D10*
%TO.P,J5,1,Pin_1*%
%TO.N,/+3.3V*%
X111430000Y-50343000D03*
D11*
%TO.P,J5,2,Pin_2*%
%TO.N,/\u002A9*%
X108890000Y-50343000D03*
%TO.P,J5,3,Pin_3*%
%TO.N,unconnected-(J5-Pin_3-Pad3)*%
X111430000Y-52883000D03*
%TO.P,J5,4,Pin_4*%
%TO.N,unconnected-(J5-Pin_4-Pad4)*%
X108890000Y-52883000D03*
%TO.P,J5,5,Pin_5*%
%TO.N,/+3.3V*%
X111430000Y-55423000D03*
%TO.P,J5,6,Pin_6*%
%TO.N,unconnected-(J5-Pin_6-Pad6)*%
X108890000Y-55423000D03*
%TO.P,J5,7,Pin_7*%
%TO.N,/8*%
X111430000Y-57963000D03*
%TO.P,J5,8,Pin_8*%
%TO.N,GND*%
X108890000Y-57963000D03*
%TD*%
D10*
%TO.P,J1,1,Pin_1*%
%TO.N,unconnected-(J1-Pin_1-Pad1)*%
X127940000Y-97460000D03*
D11*
%TO.P,J1,2,Pin_2*%
%TO.N,/IOREF*%
X130480000Y-97460000D03*
%TO.P,J1,3,Pin_3*%
%TO.N,/~{RESET}*%
X133020000Y-97460000D03*
%TO.P,J1,4,Pin_4*%
%TO.N,+3V3*%
X135560000Y-97460000D03*
%TO.P,J1,5,Pin_5*%
%TO.N,+5V*%
X138100000Y-97460000D03*
%TO.P,J1,6,Pin_6*%
%TO.N,GND*%
X140640000Y-97460000D03*
%TO.P,J1,7,Pin_7*%
X143180000Y-97460000D03*
%TO.P,J1,8,Pin_8*%
%TO.N,VCC*%
X145720000Y-97460000D03*
%TD*%
D10*
%TO.P,J3,1,Pin_1*%
%TO.N,/A0*%
X150800000Y-97460000D03*
D11*
%TO.P,J3,2,Pin_2*%
%TO.N,/A1*%
X153340000Y-97460000D03*
%TO.P,J3,3,Pin_3*%
%TO.N,/A2*%
X155880000Y-97460000D03*
%TO.P,J3,4,Pin_4*%
%TO.N,/A3*%
X158420000Y-97460000D03*
%TO.P,J3,5,Pin_5*%
%TO.N,/SDA{slash}A4*%
X160960000Y-97460000D03*
%TO.P,J3,6,Pin_6*%
%TO.N,/SCL{slash}A5*%
X163500000Y-97460000D03*
%TD*%
D10*
%TO.P,J2,1,Pin_1*%
%TO.N,/SCL{slash}A5*%
X118796000Y-49200000D03*
D11*
%TO.P,J2,2,Pin_2*%
%TO.N,/SDA{slash}A4*%
X121336000Y-49200000D03*
%TO.P,J2,3,Pin_3*%
%TO.N,/AREF*%
X123876000Y-49200000D03*
%TO.P,J2,4,Pin_4*%
%TO.N,GND*%
X126416000Y-49200000D03*
%TO.P,J2,5,Pin_5*%
%TO.N,/13*%
X128956000Y-49200000D03*
%TO.P,J2,6,Pin_6*%
%TO.N,/12*%
X131496000Y-49200000D03*
%TO.P,J2,7,Pin_7*%
%TO.N,/\u002A11*%
X134036000Y-49200000D03*
%TO.P,J2,8,Pin_8*%
%TO.N,/\u002A10*%
X136576000Y-49200000D03*
%TO.P,J2,9,Pin_9*%
%TO.N,/\u002A9*%
X139116000Y-49200000D03*
%TO.P,J2,10,Pin_10*%
%TO.N,/8*%
X141656000Y-49200000D03*
%TD*%
D10*
%TO.P,J4,1,Pin_1*%
%TO.N,/7*%
X145720000Y-49200000D03*
D11*
%TO.P,J4,2,Pin_2*%
%TO.N,/\u002A6*%
X148260000Y-49200000D03*
%TO.P,J4,3,Pin_3*%
%TO.N,/\u002A5*%
X150800000Y-49200000D03*
%TO.P,J4,4,Pin_4*%
%TO.N,/4*%
X153340000Y-49200000D03*
%TO.P,J4,5,Pin_5*%
%TO.N,/\u002A3*%
X155880000Y-49200000D03*
%TO.P,J4,6,Pin_6*%
%TO.N,/2*%
X158420000Y-49200000D03*
%TO.P,J4,7,Pin_7*%
%TO.N,/TX{slash}1*%
X160960000Y-49200000D03*
%TO.P,J4,8,Pin_8*%
%TO.N,/RX{slash}0*%
X163500000Y-49200000D03*
%TD*%
D10*
%TO.P,J6,1,Pin_1*%
%TO.N,GND*%
X102286000Y-65710000D03*
D11*
%TO.P,J6,2,Pin_2*%
%TO.N,+5V*%
X104826000Y-65710000D03*
%TO.P,J6,3,Pin_3*%
%TO.N,/LCD_V0*%
X107366000Y-65710000D03*
%TO.P,J6,4,Pin_4*%
%TO.N,/12*%
X109906000Y-65710000D03*
%TO.P,J6,5,Pin_5*%
%TO.N,GND*%
X112446000Y-65710000D03*
%TO.P,J6,6,Pin_6*%
%TO.N,/\u002A11*%
X114986000Y-65710000D03*
%TO.P,J6,7,Pin_7*%
%TO.N,unconnected-(J6-Pin_7-Pad7)*%
X117526000Y-65710000D03*
%TO.P,J6,8,Pin_8*%
%TO.N,unconnected-(J6-Pin_8-Pad8)*%
X120066000Y-65710000D03*
%TO.P,J6,9,Pin_9*%
%TO.N,unconnected-(J6-Pin_9-Pad9)*%
X122606000Y-65710000D03*
%TO.P,J6,10,Pin_10*%
%TO.N,unconnected-(J6-Pin_10-Pad10)*%
X125146000Y-65710000D03*
%TO.P,J6,11,Pin_11*%
%TO.N,/2*%
X127686000Y-65710000D03*
%TO.P,J6,12,Pin_12*%
%TO.N,/\u002A3*%
X130226000Y-65710000D03*
%TO.P,J6,13,Pin_13*%
%TO.N,/4*%
X132766000Y-65710000D03*
%TO.P,J6,14,Pin_14*%
%TO.N,/\u002A5*%
X135306000Y-65710000D03*
%TO.P,J6,15,Pin_15*%
%TO.N,+5V*%
X137846000Y-65710000D03*
%TO.P,J6,16,Pin_16*%
%TO.N,GND*%
X140386000Y-65710000D03*
%TD*%
D12*
%TO.P,U1,1,VCC*%
%TO.N,+5V*%
X154102000Y-55931000D03*
D13*
%TO.P,U1,2,IO*%
%TO.N,/\u002A10*%
X156642000Y-55931000D03*
%TO.P,U1,3,NC*%
%TO.N,unconnected-(U1-NC-Pad3)*%
X159182000Y-55931000D03*
%TO.P,U1,4,GND*%
%TO.N,GND*%
X161722000Y-55931000D03*
%TD*%
D14*
%TO.P,R3,1*%
%TO.N,Net-(D1-K)*%
X140259000Y-74346000D03*
D15*
%TO.P,R3,2*%
%TO.N,GND*%
X147879000Y-74346000D03*
%TD*%
D14*
%TO.P,R2,1*%
%TO.N,/A0*%
X122987000Y-74854000D03*
D15*
%TO.P,R2,2*%
%TO.N,GND*%
X115367000Y-74854000D03*
%TD*%
D16*
%TO.P,R1,1*%
%TO.N,+5V*%
X133303000Y-55550000D03*
D17*
%TO.P,R1,2*%
%TO.N,/A0*%
X135203000Y-55550000D03*
%TD*%
D18*
%TO.P,D1,1,K*%
%TO.N,Net-(D1-K)*%
X144323000Y-55804000D03*
D19*
%TO.P,D1,2,A*%
%TO.N,/\u002A5*%
X141783000Y-55804000D03*
%TD*%
D20*
%TO.P,RV1,1,1*%
%TO.N,+5V*%
X122173000Y-59192600D03*
%TO.P,RV1,2,2*%
%TO.N,/LCD_V0*%
X124713000Y-56652600D03*
%TO.P,RV1,3,3*%
%TO.N,GND*%
X122173000Y-54112600D03*
%TD*%
D21*
%TO.N,+5V*%
X133655000Y-90094000D03*
%TO.N,/SDA{slash}A4*%
X162103000Y-92380000D03*
%TO.N,/8*%
X126517600Y-52146400D03*
%TO.N,/4*%
X148133000Y-54788000D03*
%TO.N,/2*%
X149784000Y-56566000D03*
%TO.N,/\u002A3*%
X148895000Y-55550000D03*
%TD*%
D22*
%TO.N,+5V*%
X138100000Y-97460000D02*
X138100000Y-94539000D01*
X134163000Y-53899000D02*
X150800000Y-53899000D01*
X133303000Y-55550000D02*
X133303000Y-54759000D01*
X152832000Y-55931000D02*
X154102000Y-55931000D01*
X133303000Y-54759000D02*
X134163000Y-53899000D01*
X138100000Y-94539000D02*
X133655000Y-90094000D01*
X150800000Y-53899000D02*
X152832000Y-55931000D01*
D23*
%TO.N,/A0*%
X138735000Y-93142000D02*
X149149000Y-93142000D01*
X126511000Y-67520000D02*
X126511000Y-63456000D01*
X150800000Y-94793000D02*
X150800000Y-97460000D01*
X122987000Y-71044000D02*
X126511000Y-67520000D01*
X130607000Y-59360000D02*
X133782000Y-59360000D01*
X122987000Y-74854000D02*
X122987000Y-77394000D01*
X122987000Y-77394000D02*
X138735000Y-93142000D01*
X126511000Y-63456000D02*
X130607000Y-59360000D01*
X133782000Y-59360000D02*
X135203000Y-57939000D01*
X122987000Y-74854000D02*
X122987000Y-71044000D01*
X135203000Y-57939000D02*
X135203000Y-55550000D01*
X149149000Y-93142000D02*
X150800000Y-94793000D01*
D22*
%TO.N,/SDA{slash}A4*%
X161087000Y-93396000D02*
X161087000Y-97333000D01*
X162103000Y-92380000D02*
X161087000Y-93396000D01*
X161087000Y-97333000D02*
X160960000Y-97460000D01*
D23*
%TO.N,/12*%
X109910000Y-65846500D02*
X112688100Y-63068400D01*
X122961600Y-63068400D02*
X128709200Y-57320800D01*
X128709200Y-57320800D02*
X128709200Y-51986800D01*
X128709200Y-51986800D02*
X131496000Y-49200000D01*
X112688100Y-63068400D02*
X122961600Y-63068400D01*
%TO.N,/8*%
X112537900Y-58048900D02*
X117526000Y-53060800D01*
X111205600Y-58048900D02*
X112537900Y-58048900D01*
X118491200Y-52095600D02*
X123164800Y-52095600D01*
X117526000Y-53060800D02*
X118491200Y-52095600D01*
X123164800Y-52095600D02*
X126466800Y-52095600D01*
X126466800Y-52095600D02*
X126517600Y-52146400D01*
%TO.N,/\u002A11*%
X134036000Y-49200000D02*
X132054800Y-51181200D01*
X129159200Y-57507196D02*
X123147996Y-63518400D01*
X123147996Y-63518400D02*
X117177600Y-63518400D01*
X117177600Y-63518400D02*
X114986000Y-65710000D01*
X129159200Y-52173196D02*
X129159200Y-57507196D01*
X130151196Y-51181200D02*
X129159200Y-52173196D01*
X132054800Y-51181200D02*
X130151196Y-51181200D01*
%TO.N,/\u002A10*%
X156642000Y-55931000D02*
X153975000Y-53264000D01*
X136576000Y-50851000D02*
X136576000Y-49200000D01*
X153975000Y-53264000D02*
X138989000Y-53264000D01*
X138989000Y-53264000D02*
X136576000Y-50851000D01*
%TO.N,/\u002A9*%
X108665600Y-50428900D02*
X111926500Y-47168000D01*
X111926500Y-47168000D02*
X137084000Y-47168000D01*
X137084000Y-47168000D02*
X139116000Y-49200000D01*
%TO.N,/4*%
X132581000Y-70603604D02*
X137974396Y-75997000D01*
X147498000Y-55423000D02*
X148133000Y-54788000D01*
X132581000Y-70602208D02*
X132581000Y-70603604D01*
X146863000Y-57579208D02*
X147498000Y-56944208D01*
X146863000Y-71425000D02*
X146863000Y-57579208D01*
X137974396Y-75997000D02*
X142291000Y-75997000D01*
X142291000Y-75997000D02*
X146863000Y-71425000D01*
X131438000Y-69459208D02*
X132581000Y-70602208D01*
X132766000Y-65710000D02*
X131438000Y-67038000D01*
X131438000Y-67038000D02*
X131438000Y-69459208D01*
X147498000Y-56944208D02*
X147498000Y-55423000D01*
%TO.N,/2*%
X147763000Y-57952000D02*
X148641000Y-57074000D01*
X128067000Y-65710000D02*
X130538000Y-68181000D01*
X142663792Y-76897000D02*
X147763000Y-71797792D01*
X148641000Y-57074000D02*
X149276000Y-57074000D01*
X127686000Y-65710000D02*
X128067000Y-65710000D01*
X131681000Y-70976396D02*
X137601604Y-76897000D01*
X137601604Y-76897000D02*
X142663792Y-76897000D01*
X130538000Y-68181000D02*
X130538000Y-69832000D01*
X147763000Y-71797792D02*
X147763000Y-57952000D01*
X149276000Y-57074000D02*
X149784000Y-56566000D01*
X130538000Y-69832000D02*
X131681000Y-70975000D01*
X131681000Y-70975000D02*
X131681000Y-70976396D01*
%TO.N,/\u002A5*%
X138989000Y-58598000D02*
X141783000Y-55804000D01*
X135306000Y-65710000D02*
X138989000Y-62027000D01*
X138989000Y-62027000D02*
X138989000Y-58598000D01*
%TO.N,/\u002A3*%
X130988000Y-66472000D02*
X130988000Y-69645604D01*
X130988000Y-69645604D02*
X132131000Y-70788604D01*
X132131000Y-70788604D02*
X132131000Y-70790000D01*
X147313000Y-57765604D02*
X148006000Y-57072604D01*
X130226000Y-65710000D02*
X130988000Y-66472000D01*
X132131000Y-70790000D02*
X137788000Y-76447000D01*
X142477396Y-76447000D02*
X147313000Y-71611396D01*
X147313000Y-71611396D02*
X147313000Y-57765604D01*
X148006000Y-57072604D02*
X148006000Y-55746000D01*
X137788000Y-76447000D02*
X142477396Y-76447000D01*
X148006000Y-55746000D02*
X148202000Y-55550000D01*
X148202000Y-55550000D02*
X148895000Y-55550000D01*
%TO.N,/LCD_V0*%
X107370000Y-65846500D02*
X110598100Y-62618400D01*
X124713000Y-60680604D02*
X124713000Y-56652600D01*
X122775204Y-62618400D02*
X124713000Y-60680604D01*
X110598100Y-62618400D02*
X122775204Y-62618400D01*
%TO.N,/+3.3V*%
X100762000Y-74654000D02*
X109801200Y-83693200D01*
X109801200Y-83693200D02*
X125501600Y-83693200D01*
X111303000Y-50343000D02*
X113843000Y-52883000D01*
X125501600Y-83693200D02*
X135560000Y-93751600D01*
X112165496Y-55322504D02*
X111655600Y-55322504D01*
X111205600Y-55508900D02*
X109875100Y-54178400D01*
X113843000Y-53645000D02*
X112165496Y-55322504D01*
X106553200Y-54178400D02*
X100762000Y-59969600D01*
X111655600Y-55322504D02*
X111529548Y-55196452D01*
X113843000Y-52883000D02*
X113843000Y-53645000D01*
X100762000Y-59969600D02*
X100762000Y-74654000D01*
X135560000Y-93751600D02*
X135560000Y-97460000D01*
X109875100Y-54178400D02*
X106553200Y-54178400D01*
%TO.N,Net-(D1-K)*%
X140259000Y-74346000D02*
X140259000Y-70790000D01*
X144323000Y-66726000D02*
X144323000Y-55804000D01*
X140259000Y-70790000D02*
X144323000Y-66726000D01*
%TD*%
%TA.AperFunction,Conductor*%
%TO.N,+5V*%
G36*
X164255821Y-47180743D02*
G01*
X164299931Y-47216276D01*
X165631965Y-48911592D01*
X165652020Y-48948404D01*
X165658889Y-48989757D01*
X165532317Y-98985564D01*
X165515371Y-99048358D01*
X165469367Y-99094335D01*
X165406564Y-99111245D01*
X107917554Y-99223748D01*
X100761246Y-99237752D01*
X100698142Y-99220954D01*
X100651922Y-99174824D01*
X100635000Y-99111753D01*
X100635000Y-75727094D01*
X100648733Y-75669891D01*
X100686939Y-75625158D01*
X100741289Y-75602645D01*
X100799936Y-75607261D01*
X100850095Y-75637999D01*
X109293951Y-84081855D01*
X109307034Y-84098185D01*
X109358865Y-84146856D01*
X109361677Y-84149581D01*
X109381430Y-84169334D01*
X109383383Y-84170849D01*
X109384624Y-84171812D01*
X109393644Y-84179516D01*
X109425879Y-84209786D01*
X109443635Y-84219547D01*
X109460151Y-84230396D01*
X109476159Y-84242813D01*
X109516725Y-84260367D01*
X109527388Y-84265591D01*
X109566135Y-84286893D01*
X109566137Y-84286893D01*
X109566140Y-84286895D01*
X109585774Y-84291936D01*
X109604459Y-84298334D01*
X109623055Y-84306381D01*
X109666730Y-84313298D01*
X109678325Y-84315698D01*
X109721170Y-84326700D01*
X109741424Y-84326700D01*
X109761134Y-84328251D01*
X109781142Y-84331420D01*
X109781142Y-84331419D01*
X109781143Y-84331420D01*
X109825161Y-84327258D01*
X109837019Y-84326700D01*
X125187006Y-84326700D01*
X125235224Y-84336291D01*
X125276101Y-84363605D01*
X134889595Y-93977099D01*
X134916909Y-94017976D01*
X134926500Y-94066194D01*
X134926500Y-96183079D01*
X134908741Y-96247576D01*
X134860471Y-96293891D01*
X134827178Y-96311908D01*
X134814418Y-96318814D01*
X134636762Y-96457091D01*
X134484278Y-96622731D01*
X134395483Y-96758643D01*
X134349969Y-96800541D01*
X134290000Y-96815727D01*
X134230031Y-96800541D01*
X134184517Y-96758643D01*
X134095721Y-96622731D01*
X134014126Y-96534096D01*
X133943240Y-96457094D01*
X133943239Y-96457093D01*
X133943237Y-96457091D01*
X133765578Y-96318812D01*
X133567573Y-96211657D01*
X133402354Y-96154938D01*
X133354635Y-96138556D01*
X133132569Y-96101500D01*
X132907431Y-96101500D01*
X132685365Y-96138556D01*
X132685362Y-96138556D01*
X132685362Y-96138557D01*
X132472426Y-96211657D01*
X132274421Y-96318812D01*
X132096762Y-96457091D01*
X131944278Y-96622731D01*
X131855483Y-96758643D01*
X131809969Y-96800541D01*
X131750000Y-96815727D01*
X131690031Y-96800541D01*
X131644517Y-96758643D01*
X131555721Y-96622731D01*
X131474126Y-96534096D01*
X131403240Y-96457094D01*
X131403239Y-96457093D01*
X131403237Y-96457091D01*
X131225578Y-96318812D01*
X131027573Y-96211657D01*
X130862354Y-96154938D01*
X130814635Y-96138556D01*
X130592569Y-96101500D01*
X130367431Y-96101500D01*
X130145365Y-96138556D01*
X130145362Y-96138556D01*
X130145362Y-96138557D01*
X129932426Y-96211657D01*
X129734421Y-96318812D01*
X129556758Y-96457094D01*
X129495754Y-96523362D01*
X129442282Y-96557762D01*
X129378820Y-96561672D01*
X129321530Y-96534096D01*
X129284998Y-96482056D01*
X129275688Y-96457094D01*
X129240889Y-96363796D01*
X129240888Y-96363794D01*
X129153261Y-96246738D01*
X129036205Y-96159111D01*
X128967702Y-96133561D01*
X128899201Y-96108011D01*
X128838638Y-96101500D01*
X127041362Y-96101500D01*
X126980799Y-96108011D01*
X126843794Y-96159111D01*
X126726738Y-96246738D01*
X126639111Y-96363794D01*
X126595002Y-96482056D01*
X126588011Y-96500799D01*
X126581500Y-96561362D01*
X126581500Y-98358638D01*
X126588011Y-98419201D01*
X126604173Y-98462533D01*
X126639111Y-98556205D01*
X126726738Y-98673261D01*
X126843794Y-98760888D01*
X126843795Y-98760888D01*
X126843796Y-98760889D01*
X126980799Y-98811989D01*
X127041362Y-98818500D01*
X128838638Y-98818500D01*
X128899201Y-98811989D01*
X129036204Y-98760889D01*
X129153261Y-98673261D01*
X129240889Y-98556204D01*
X129284999Y-98437941D01*
X129321530Y-98385903D01*
X129378821Y-98358327D01*
X129442282Y-98362237D01*
X129495753Y-98396636D01*
X129533780Y-98437943D01*
X129556762Y-98462908D01*
X129734421Y-98601187D01*
X129734424Y-98601189D01*
X129932426Y-98708342D01*
X130145365Y-98781444D01*
X130367431Y-98818500D01*
X130592566Y-98818500D01*
X130592569Y-98818500D01*
X130814635Y-98781444D01*
X131027574Y-98708342D01*
X131225576Y-98601189D01*
X131403240Y-98462906D01*
X131555722Y-98297268D01*
X131644518Y-98161354D01*
X131690031Y-98119458D01*
X131750000Y-98104272D01*
X131809969Y-98119458D01*
X131855481Y-98161354D01*
X131944278Y-98297268D01*
X132056525Y-98419200D01*
X132096762Y-98462908D01*
X132274421Y-98601187D01*
X132274424Y-98601189D01*
X132472426Y-98708342D01*
X132685365Y-98781444D01*
X132907431Y-98818500D01*
X133132566Y-98818500D01*
X133132569Y-98818500D01*
X133354635Y-98781444D01*
X133567574Y-98708342D01*
X133765576Y-98601189D01*
X133943240Y-98462906D01*
X134095722Y-98297268D01*
X134184518Y-98161354D01*
X134230031Y-98119458D01*
X134290000Y-98104272D01*
X134349969Y-98119458D01*
X134395481Y-98161354D01*
X134484278Y-98297268D01*
X134596525Y-98419200D01*
X134636762Y-98462908D01*
X134814421Y-98601187D01*
X134814424Y-98601189D01*
X135012426Y-98708342D01*
X135225365Y-98781444D01*
X135447431Y-98818500D01*
X135672566Y-98818500D01*
X135672569Y-98818500D01*
X135894635Y-98781444D01*
X136107574Y-98708342D01*
X136305576Y-98601189D01*
X136483240Y-98462906D01*
X136635722Y-98297268D01*
X136724818Y-98160896D01*
X136770329Y-98118999D01*
X136830299Y-98103813D01*
X136890268Y-98118999D01*
X136935782Y-98160897D01*
X137024678Y-98296962D01*
X137177096Y-98462533D01*
X137354697Y-98600766D01*
X137552631Y-98707883D01*
X137765485Y-98780955D01*
X137846000Y-98794391D01*
X138354000Y-98794391D01*
X138434514Y-98780955D01*
X138647368Y-98707883D01*
X138845302Y-98600766D01*
X139022903Y-98462533D01*
X139175323Y-98296960D01*
X139264217Y-98160899D01*
X139309730Y-98119000D01*
X139369700Y-98103814D01*
X139429669Y-98119000D01*
X139475183Y-98160898D01*
X139564278Y-98297268D01*
X139676525Y-98419200D01*
X139716762Y-98462908D01*
X139894421Y-98601187D01*
X139894424Y-98601189D01*
X140092426Y-98708342D01*
X140305365Y-98781444D01*
X140527431Y-98818500D01*
X140752566Y-98818500D01*
X140752569Y-98818500D01*
X140974635Y-98781444D01*
X141187574Y-98708342D01*
X141385576Y-98601189D01*
X141563240Y-98462906D01*
X141715722Y-98297268D01*
X141804518Y-98161354D01*
X141850031Y-98119458D01*
X141910000Y-98104272D01*
X141969969Y-98119458D01*
X142015481Y-98161354D01*
X142104278Y-98297268D01*
X142216525Y-98419200D01*
X142256762Y-98462908D01*
X142434421Y-98601187D01*
X142434424Y-98601189D01*
X142632426Y-98708342D01*
X142845365Y-98781444D01*
X143067431Y-98818500D01*
X143292566Y-98818500D01*
X143292569Y-98818500D01*
X143514635Y-98781444D01*
X143727574Y-98708342D01*
X143925576Y-98601189D01*
X144103240Y-98462906D01*
X144255722Y-98297268D01*
X144344518Y-98161354D01*
X144390031Y-98119458D01*
X144450000Y-98104272D01*
X144509969Y-98119458D01*
X144555481Y-98161354D01*
X144644278Y-98297268D01*
X144756525Y-98419200D01*
X144796762Y-98462908D01*
X144974421Y-98601187D01*
X144974424Y-98601189D01*
X145172426Y-98708342D01*
X145385365Y-98781444D01*
X145607431Y-98818500D01*
X145832566Y-98818500D01*
X145832569Y-98818500D01*
X146054635Y-98781444D01*
X146267574Y-98708342D01*
X146465576Y-98601189D01*
X146643240Y-98462906D01*
X146795722Y-98297268D01*
X146918860Y-98108791D01*
X147009296Y-97902616D01*
X147064564Y-97684368D01*
X147083156Y-97460000D01*
X147064564Y-97235632D01*
X147009296Y-97017384D01*
X146918860Y-96811209D01*
X146795722Y-96622732D01*
X146643240Y-96457094D01*
X146643239Y-96457093D01*
X146643237Y-96457091D01*
X146465578Y-96318812D01*
X146267573Y-96211657D01*
X146102354Y-96154938D01*
X146054635Y-96138556D01*
X145832569Y-96101500D01*
X145607431Y-96101500D01*
X145385365Y-96138556D01*
X145385362Y-96138556D01*
X145385362Y-96138557D01*
X145172426Y-96211657D01*
X144974421Y-96318812D01*
X144796762Y-96457091D01*
X144644278Y-96622731D01*
X144555483Y-96758643D01*
X144509969Y-96800541D01*
X144450000Y-96815727D01*
X144390031Y-96800541D01*
X144344517Y-96758643D01*
X144255721Y-96622731D01*
X144174126Y-96534096D01*
X144103240Y-96457094D01*
X144103239Y-96457093D01*
X144103237Y-96457091D01*
X143925578Y-96318812D01*
X143727573Y-96211657D01*
X143562354Y-96154938D01*
X143514635Y-96138556D01*
X143292569Y-96101500D01*
X143067431Y-96101500D01*
X142845365Y-96138556D01*
X142845362Y-96138556D01*
X142845362Y-96138557D01*
X142632426Y-96211657D01*
X142434421Y-96318812D01*
X142256762Y-96457091D01*
X142104278Y-96622731D01*
X142015483Y-96758643D01*
X141969969Y-96800541D01*
X141910000Y-96815727D01*
X141850031Y-96800541D01*
X141804517Y-96758643D01*
X141715721Y-96622731D01*
X141634126Y-96534096D01*
X141563240Y-96457094D01*
X141563239Y-96457093D01*
X141563237Y-96457091D01*
X141385578Y-96318812D01*
X141187573Y-96211657D01*
X141022354Y-96154938D01*
X140974635Y-96138556D01*
X140752569Y-96101500D01*
X140527431Y-96101500D01*
X140305365Y-96138556D01*
X140305362Y-96138556D01*
X140305362Y-96138557D01*
X140092426Y-96211657D01*
X139894421Y-96318812D01*
X139716762Y-96457091D01*
X139564275Y-96622735D01*
X139475182Y-96759101D01*
X139429669Y-96800999D01*
X139369700Y-96816185D01*
X139309731Y-96800999D01*
X139264217Y-96759101D01*
X139175321Y-96623037D01*
X139022903Y-96457466D01*
X138845302Y-96319233D01*
X138647368Y-96212116D01*
X138434514Y-96139044D01*
X138354000Y-96125609D01*
X138354000Y-98794391D01*
X137846000Y-98794391D01*
X137846000Y-96125609D01*
X137765485Y-96139044D01*
X137552631Y-96212116D01*
X137354697Y-96319233D01*
X137177096Y-96457466D01*
X137024678Y-96623037D01*
X136935782Y-96759102D01*
X136890268Y-96801000D01*
X136830299Y-96816186D01*
X136770329Y-96801000D01*
X136724816Y-96759101D01*
X136635723Y-96622734D01*
X136635722Y-96622732D01*
X136483240Y-96457094D01*
X136483239Y-96457093D01*
X136483237Y-96457091D01*
X136305581Y-96318814D01*
X136305577Y-96318811D01*
X136305576Y-96318811D01*
X136259528Y-96293891D01*
X136211259Y-96247576D01*
X136193500Y-96183079D01*
X136193500Y-93835454D01*
X136195795Y-93814664D01*
X136194564Y-93775500D01*
X136193561Y-93743601D01*
X136193500Y-93739644D01*
X136193500Y-93711749D01*
X136193500Y-93711744D01*
X136192993Y-93707738D01*
X136192062Y-93695905D01*
X136191985Y-93693443D01*
X136190674Y-93651711D01*
X136185020Y-93632252D01*
X136181013Y-93612906D01*
X136178474Y-93592803D01*
X136162194Y-93551686D01*
X136158353Y-93540466D01*
X136146017Y-93498005D01*
X136135706Y-93480570D01*
X136127008Y-93462815D01*
X136119552Y-93443983D01*
X136093565Y-93408216D01*
X136087047Y-93398293D01*
X136064542Y-93360238D01*
X136050212Y-93345908D01*
X136037378Y-93330881D01*
X136025472Y-93314493D01*
X136025471Y-93314492D01*
X135991394Y-93286300D01*
X135982616Y-93278312D01*
X126008844Y-83304539D01*
X125995771Y-83288221D01*
X125943949Y-83239557D01*
X125941137Y-83236832D01*
X125921370Y-83217065D01*
X125918175Y-83214586D01*
X125909153Y-83206881D01*
X125876920Y-83176613D01*
X125859167Y-83166853D01*
X125842641Y-83155997D01*
X125826641Y-83143586D01*
X125786066Y-83126028D01*
X125775404Y-83120804D01*
X125736663Y-83099505D01*
X125722913Y-83095975D01*
X125717037Y-83094466D01*
X125698331Y-83088062D01*
X125679745Y-83080019D01*
X125636075Y-83073102D01*
X125624453Y-83070695D01*
X125581630Y-83059700D01*
X125581629Y-83059700D01*
X125561376Y-83059700D01*
X125541666Y-83058149D01*
X125521657Y-83054979D01*
X125477639Y-83059141D01*
X125465781Y-83059700D01*
X110115795Y-83059700D01*
X110067577Y-83050109D01*
X110026700Y-83022795D01*
X101857905Y-74854000D01*
X114053502Y-74854000D01*
X114073457Y-75082087D01*
X114132715Y-75303243D01*
X114229477Y-75510750D01*
X114360804Y-75698303D01*
X114522696Y-75860195D01*
X114710249Y-75991522D01*
X114917756Y-76088284D01*
X114977014Y-76104162D01*
X115138913Y-76147543D01*
X115367000Y-76167498D01*
X115595087Y-76147543D01*
X115816243Y-76088284D01*
X116023749Y-75991523D01*
X116211300Y-75860198D01*
X116373198Y-75698300D01*
X116504523Y-75510749D01*
X116601284Y-75303243D01*
X116660543Y-75082087D01*
X116680498Y-74854000D01*
X116660543Y-74625913D01*
X116601284Y-74404757D01*
X116595146Y-74391595D01*
X116504522Y-74197249D01*
X116373195Y-74009696D01*
X116211303Y-73847804D01*
X116023750Y-73716477D01*
X115816243Y-73619715D01*
X115595087Y-73560457D01*
X115367000Y-73540502D01*
X115138912Y-73560457D01*
X114917756Y-73619715D01*
X114710249Y-73716477D01*
X114522696Y-73847804D01*
X114360804Y-74009696D01*
X114229477Y-74197249D01*
X114132715Y-74404756D01*
X114073457Y-74625912D01*
X114053502Y-74854000D01*
X101857905Y-74854000D01*
X101432405Y-74428500D01*
X101405091Y-74387623D01*
X101395500Y-74339405D01*
X101395500Y-67194500D01*
X101412381Y-67131500D01*
X101458500Y-67085381D01*
X101521500Y-67068500D01*
X103184638Y-67068500D01*
X103245201Y-67061989D01*
X103382204Y-67010889D01*
X103499261Y-66923261D01*
X103586889Y-66806204D01*
X103631195Y-66687414D01*
X103667726Y-66635377D01*
X103725017Y-66607801D01*
X103788479Y-66611711D01*
X103841951Y-66646112D01*
X103903096Y-66712533D01*
X104080697Y-66850766D01*
X104278631Y-66957883D01*
X104491485Y-67030955D01*
X104572000Y-67044391D01*
X104572000Y-64375609D01*
X104491485Y-64389044D01*
X104278631Y-64462116D01*
X104080697Y-64569233D01*
X103903099Y-64707463D01*
X103841951Y-64773888D01*
X103788478Y-64808288D01*
X103725017Y-64812198D01*
X103667726Y-64784622D01*
X103631194Y-64732582D01*
X103621687Y-64707094D01*
X103586889Y-64613796D01*
X103586888Y-64613794D01*
X103499261Y-64496738D01*
X103382205Y-64409111D01*
X103313702Y-64383561D01*
X103245201Y-64358011D01*
X103184638Y-64351500D01*
X101521500Y-64351500D01*
X101458500Y-64334619D01*
X101412381Y-64288500D01*
X101395500Y-64225500D01*
X101395500Y-60284194D01*
X101405091Y-60235976D01*
X101414257Y-60222259D01*
X121502551Y-60222259D01*
X121556654Y-60260141D01*
X121751395Y-60350951D01*
X121958944Y-60406563D01*
X122173000Y-60425290D01*
X122387055Y-60406563D01*
X122594605Y-60350951D01*
X122789346Y-60260141D01*
X122843447Y-60222259D01*
X122843447Y-60222258D01*
X122173000Y-59551810D01*
X121502551Y-60222259D01*
X101414257Y-60222259D01*
X101432405Y-60195099D01*
X106778699Y-54848805D01*
X106819576Y-54821491D01*
X106867794Y-54811900D01*
X107481751Y-54811900D01*
X107541718Y-54827085D01*
X107587231Y-54868980D01*
X107607320Y-54927488D01*
X107600309Y-54969514D01*
X107603267Y-54970263D01*
X107548144Y-55187940D01*
X107545436Y-55198632D01*
X107526844Y-55423000D01*
X107545436Y-55647368D01*
X107545436Y-55647371D01*
X107545437Y-55647372D01*
X107600702Y-55865611D01*
X107691139Y-56071790D01*
X107795039Y-56230821D01*
X107814278Y-56260268D01*
X107909417Y-56363616D01*
X107966762Y-56425908D01*
X108144418Y-56564185D01*
X108144420Y-56564186D01*
X108144424Y-56564189D01*
X108177682Y-56582187D01*
X108225952Y-56628503D01*
X108243711Y-56693000D01*
X108225952Y-56757497D01*
X108177682Y-56803812D01*
X108170067Y-56807934D01*
X108144418Y-56821814D01*
X107966762Y-56960091D01*
X107814278Y-57125731D01*
X107691139Y-57314209D01*
X107600702Y-57520388D01*
X107551800Y-57713500D01*
X107545436Y-57738632D01*
X107526844Y-57963000D01*
X107545436Y-58187368D01*
X107545436Y-58187371D01*
X107545437Y-58187372D01*
X107600702Y-58405611D01*
X107691139Y-58611790D01*
X107803844Y-58784297D01*
X107814278Y-58800268D01*
X107865084Y-58855458D01*
X107966762Y-58965908D01*
X108144421Y-59104187D01*
X108144424Y-59104189D01*
X108342426Y-59211342D01*
X108555365Y-59284444D01*
X108777431Y-59321500D01*
X109002566Y-59321500D01*
X109002569Y-59321500D01*
X109224635Y-59284444D01*
X109437574Y-59211342D01*
X109635576Y-59104189D01*
X109813240Y-58965906D01*
X109965722Y-58800268D01*
X110054518Y-58664354D01*
X110100031Y-58622458D01*
X110160000Y-58607272D01*
X110219969Y-58622458D01*
X110265481Y-58664354D01*
X110354278Y-58800268D01*
X110405084Y-58855458D01*
X110506762Y-58965908D01*
X110684421Y-59104187D01*
X110684424Y-59104189D01*
X110882426Y-59211342D01*
X111095365Y-59284444D01*
X111317431Y-59321500D01*
X111542566Y-59321500D01*
X111542569Y-59321500D01*
X111764635Y-59284444D01*
X111977574Y-59211342D01*
X112012208Y-59192599D01*
X120940309Y-59192599D01*
X120959036Y-59406655D01*
X121014648Y-59614204D01*
X121105458Y-59808945D01*
X121143340Y-59863048D01*
X121813789Y-59192600D01*
X122532210Y-59192600D01*
X123202657Y-59863047D01*
X123202659Y-59863047D01*
X123240541Y-59808946D01*
X123331351Y-59614205D01*
X123386963Y-59406655D01*
X123405690Y-59192599D01*
X123386963Y-58978544D01*
X123331351Y-58770995D01*
X123240541Y-58576253D01*
X123202658Y-58522152D01*
X123202657Y-58522152D01*
X122532210Y-59192599D01*
X122532210Y-59192600D01*
X121813789Y-59192600D01*
X121813789Y-59192599D01*
X121143340Y-58522152D01*
X121105458Y-58576256D01*
X121014648Y-58770995D01*
X120959036Y-58978544D01*
X120940309Y-59192599D01*
X112012208Y-59192599D01*
X112175576Y-59104189D01*
X112353240Y-58965906D01*
X112505722Y-58800268D01*
X112547553Y-58736239D01*
X112591335Y-58695296D01*
X112623201Y-58686424D01*
X112622501Y-58684015D01*
X112637788Y-58679573D01*
X112637789Y-58679573D01*
X112657238Y-58673921D01*
X112676598Y-58669912D01*
X112696697Y-58667374D01*
X112737815Y-58651093D01*
X112749017Y-58647257D01*
X112791493Y-58634918D01*
X112808939Y-58624599D01*
X112826680Y-58615909D01*
X112845517Y-58608452D01*
X112881292Y-58582458D01*
X112891203Y-58575948D01*
X112929262Y-58553442D01*
X112943591Y-58539112D01*
X112958619Y-58526277D01*
X112975007Y-58514372D01*
X113003203Y-58480286D01*
X113011172Y-58471530D01*
X113319762Y-58162940D01*
X121502552Y-58162940D01*
X122173000Y-58833388D01*
X122843447Y-58162940D01*
X122789345Y-58125058D01*
X122594604Y-58034248D01*
X122387055Y-57978636D01*
X122173000Y-57959909D01*
X121958944Y-57978636D01*
X121751395Y-58034248D01*
X121556656Y-58125058D01*
X121502552Y-58162940D01*
X113319762Y-58162940D01*
X118002135Y-53480569D01*
X118061661Y-53421043D01*
X118061663Y-53421040D01*
X118716700Y-52766004D01*
X118757578Y-52738691D01*
X118805796Y-52729100D01*
X121664698Y-52729100D01*
X121729593Y-52747097D01*
X121775949Y-52795947D01*
X121790525Y-52861694D01*
X121769157Y-52925558D01*
X121717949Y-52969293D01*
X121658507Y-52997012D01*
X121556402Y-53044624D01*
X121380316Y-53167921D01*
X121228321Y-53319916D01*
X121105024Y-53496002D01*
X121034483Y-53647279D01*
X121014178Y-53690823D01*
X120958542Y-53898458D01*
X120950115Y-53994783D01*
X120939807Y-54112600D01*
X120958542Y-54326742D01*
X121014177Y-54534376D01*
X121105024Y-54729198D01*
X121228321Y-54905284D01*
X121380315Y-55057278D01*
X121380318Y-55057280D01*
X121380319Y-55057281D01*
X121415553Y-55081952D01*
X121556401Y-55180575D01*
X121556402Y-55180575D01*
X121556403Y-55180576D01*
X121751223Y-55271422D01*
X121958858Y-55327058D01*
X122173000Y-55345793D01*
X122387142Y-55327058D01*
X122594777Y-55271422D01*
X122789597Y-55180576D01*
X122965681Y-55057281D01*
X123117681Y-54905281D01*
X123240976Y-54729197D01*
X123331822Y-54534377D01*
X123387458Y-54326742D01*
X123406193Y-54112600D01*
X123387458Y-53898458D01*
X123331822Y-53690823D01*
X123240976Y-53496004D01*
X123230168Y-53480569D01*
X123187408Y-53419501D01*
X123117681Y-53319919D01*
X122965681Y-53167919D01*
X122933526Y-53145404D01*
X122789598Y-53044624D01*
X122628053Y-52969295D01*
X122576844Y-52925558D01*
X122555476Y-52861694D01*
X122570052Y-52795947D01*
X122616408Y-52747097D01*
X122681303Y-52729100D01*
X123084770Y-52729100D01*
X123204656Y-52729100D01*
X125904717Y-52729100D01*
X125952935Y-52738691D01*
X125993812Y-52766005D01*
X126010317Y-52782510D01*
X126164585Y-52879443D01*
X126296374Y-52925558D01*
X126336553Y-52939617D01*
X126517600Y-52960016D01*
X126698647Y-52939617D01*
X126870615Y-52879443D01*
X127024881Y-52782511D01*
X127153711Y-52653681D01*
X127250643Y-52499415D01*
X127310817Y-52327447D01*
X127331216Y-52146400D01*
X127310817Y-51965353D01*
X127250643Y-51793385D01*
X127201243Y-51714766D01*
X127153710Y-51639117D01*
X127024882Y-51510289D01*
X126870614Y-51413356D01*
X126698649Y-51353183D01*
X126517600Y-51332784D01*
X126336550Y-51353183D01*
X126164585Y-51413356D01*
X126129817Y-51435203D01*
X126117746Y-51442787D01*
X126050712Y-51462100D01*
X123244830Y-51462100D01*
X118575053Y-51462100D01*
X118554263Y-51459804D01*
X118483201Y-51462038D01*
X118479243Y-51462100D01*
X118451342Y-51462100D01*
X118447334Y-51462606D01*
X118435513Y-51463536D01*
X118391308Y-51464925D01*
X118371851Y-51470578D01*
X118352501Y-51474586D01*
X118332402Y-51477125D01*
X118291293Y-51493402D01*
X118280065Y-51497246D01*
X118237608Y-51509581D01*
X118220164Y-51519897D01*
X118202417Y-51528590D01*
X118183584Y-51536046D01*
X118147811Y-51562037D01*
X118137893Y-51568551D01*
X118099839Y-51591057D01*
X118085512Y-51605383D01*
X118070483Y-51618218D01*
X118054094Y-51630125D01*
X118025901Y-51664204D01*
X118017914Y-51672980D01*
X117049865Y-52641030D01*
X117049861Y-52641034D01*
X112627069Y-57063824D01*
X112568905Y-57096873D01*
X112502022Y-57095491D01*
X112445273Y-57060067D01*
X112353237Y-56960091D01*
X112175578Y-56821812D01*
X112142317Y-56803812D01*
X112094046Y-56757495D01*
X112076288Y-56692997D01*
X112094049Y-56628499D01*
X112142317Y-56582187D01*
X112175576Y-56564189D01*
X112353240Y-56425906D01*
X112505722Y-56260268D01*
X112628860Y-56071791D01*
X112719296Y-55865616D01*
X112774564Y-55647368D01*
X112777128Y-55637245D01*
X112778009Y-55637468D01*
X112785434Y-55609358D01*
X112810657Y-55573245D01*
X114231658Y-54152244D01*
X114247980Y-54139169D01*
X114250014Y-54137001D01*
X114250018Y-54137000D01*
X114296661Y-54087328D01*
X114299352Y-54084551D01*
X114319135Y-54064770D01*
X114321621Y-54061564D01*
X114329310Y-54052561D01*
X114359586Y-54020321D01*
X114369342Y-54002571D01*
X114380195Y-53986050D01*
X114392614Y-53970041D01*
X114410175Y-53929454D01*
X114415388Y-53918813D01*
X114436695Y-53880060D01*
X114441733Y-53860434D01*
X114448137Y-53841732D01*
X114456181Y-53823145D01*
X114463096Y-53779481D01*
X114465504Y-53767853D01*
X114470007Y-53750316D01*
X114476500Y-53725030D01*
X114476500Y-53704776D01*
X114478051Y-53685066D01*
X114481220Y-53665057D01*
X114477059Y-53621039D01*
X114476500Y-53609181D01*
X114476500Y-52966849D01*
X114478794Y-52946064D01*
X114478591Y-52939617D01*
X114476561Y-52875032D01*
X114476500Y-52871075D01*
X114476500Y-52843148D01*
X114476500Y-52843144D01*
X114475992Y-52839124D01*
X114475061Y-52827295D01*
X114474529Y-52810357D01*
X114473673Y-52783110D01*
X114468020Y-52763656D01*
X114464012Y-52744299D01*
X114463304Y-52738691D01*
X114461474Y-52724203D01*
X114445197Y-52683092D01*
X114441358Y-52671882D01*
X114429018Y-52629406D01*
X114418700Y-52611961D01*
X114410008Y-52594216D01*
X114402552Y-52575383D01*
X114402551Y-52575381D01*
X114376564Y-52539613D01*
X114370046Y-52529690D01*
X114367714Y-52525747D01*
X114347542Y-52491637D01*
X114333213Y-52477308D01*
X114320376Y-52462277D01*
X114308473Y-52445893D01*
X114274406Y-52417711D01*
X114265626Y-52409721D01*
X112825405Y-50969500D01*
X112798091Y-50928623D01*
X112788500Y-50880405D01*
X112788500Y-49444362D01*
X112786350Y-49424368D01*
X112781989Y-49383799D01*
X112730889Y-49246796D01*
X112730888Y-49246794D01*
X112643261Y-49129738D01*
X112526205Y-49042111D01*
X112452844Y-49014749D01*
X112389201Y-48991011D01*
X112328638Y-48984500D01*
X111310095Y-48984500D01*
X111252892Y-48970767D01*
X111208159Y-48932561D01*
X111185646Y-48878211D01*
X111190262Y-48819564D01*
X111221000Y-48769405D01*
X112152000Y-47838405D01*
X112192877Y-47811091D01*
X112241095Y-47801500D01*
X117469691Y-47801500D01*
X117535909Y-47820303D01*
X117582363Y-47871100D01*
X117595189Y-47938731D01*
X117570559Y-48003009D01*
X117495111Y-48103794D01*
X117460313Y-48197091D01*
X117444011Y-48240799D01*
X117437500Y-48301362D01*
X117437500Y-50098638D01*
X117444011Y-50159201D01*
X117460312Y-50202906D01*
X117495111Y-50296205D01*
X117582738Y-50413261D01*
X117699794Y-50500888D01*
X117699795Y-50500888D01*
X117699796Y-50500889D01*
X117836799Y-50551989D01*
X117897362Y-50558500D01*
X119694638Y-50558500D01*
X119755201Y-50551989D01*
X119892204Y-50500889D01*
X120009261Y-50413261D01*
X120096889Y-50296204D01*
X120140999Y-50177941D01*
X120177530Y-50125903D01*
X120234821Y-50098327D01*
X120298282Y-50102237D01*
X120351753Y-50136636D01*
X120389780Y-50177943D01*
X120412762Y-50202908D01*
X120590421Y-50341187D01*
X120590424Y-50341189D01*
X120788426Y-50448342D01*
X121001365Y-50521444D01*
X121223431Y-50558500D01*
X121448566Y-50558500D01*
X121448569Y-50558500D01*
X121670635Y-50521444D01*
X121883574Y-50448342D01*
X122081576Y-50341189D01*
X122259240Y-50202906D01*
X122411722Y-50037268D01*
X122500518Y-49901354D01*
X122546031Y-49859458D01*
X122606000Y-49844272D01*
X122665969Y-49859458D01*
X122711481Y-49901354D01*
X122800278Y-50037268D01*
X122912525Y-50159200D01*
X122952762Y-50202908D01*
X123130421Y-50341187D01*
X123130424Y-50341189D01*
X123328426Y-50448342D01*
X123541365Y-50521444D01*
X123763431Y-50558500D01*
X123988566Y-50558500D01*
X123988569Y-50558500D01*
X124210635Y-50521444D01*
X124423574Y-50448342D01*
X124621576Y-50341189D01*
X124799240Y-50202906D01*
X124951722Y-50037268D01*
X125040518Y-49901354D01*
X125086031Y-49859458D01*
X125146000Y-49844272D01*
X125205969Y-49859458D01*
X125251481Y-49901354D01*
X125340278Y-50037268D01*
X125452525Y-50159200D01*
X125492762Y-50202908D01*
X125670421Y-50341187D01*
X125670424Y-50341189D01*
X125868426Y-50448342D01*
X126081365Y-50521444D01*
X126303431Y-50558500D01*
X126528566Y-50558500D01*
X126528569Y-50558500D01*
X126750635Y-50521444D01*
X126963574Y-50448342D01*
X127161576Y-50341189D01*
X127339240Y-50202906D01*
X127491722Y-50037268D01*
X127580518Y-49901354D01*
X127626031Y-49859458D01*
X127686000Y-49844272D01*
X127745969Y-49859458D01*
X127791481Y-49901354D01*
X127880278Y-50037268D01*
X127992525Y-50159200D01*
X128032762Y-50202908D01*
X128210421Y-50341187D01*
X128210424Y-50341189D01*
X128408426Y-50448342D01*
X128621365Y-50521444D01*
X128843431Y-50558500D01*
X128843434Y-50558500D01*
X128937404Y-50558500D01*
X128994607Y-50572233D01*
X129039340Y-50610439D01*
X129061853Y-50664789D01*
X129057237Y-50723436D01*
X129026500Y-50773593D01*
X128669531Y-51130563D01*
X128320536Y-51479558D01*
X128304215Y-51492634D01*
X128255570Y-51544435D01*
X128252820Y-51547273D01*
X128233068Y-51567026D01*
X128233064Y-51567030D01*
X128233065Y-51567030D01*
X128230579Y-51570233D01*
X128222887Y-51579239D01*
X128192613Y-51611478D01*
X128182852Y-51629234D01*
X128172001Y-51645752D01*
X128159585Y-51661759D01*
X128142024Y-51702339D01*
X128136804Y-51712995D01*
X128115504Y-51751740D01*
X128110467Y-51771359D01*
X128104064Y-51790061D01*
X128096018Y-51808655D01*
X128089101Y-51852324D01*
X128086695Y-51863944D01*
X128075700Y-51906770D01*
X128075700Y-51927024D01*
X128074149Y-51946734D01*
X128070979Y-51966742D01*
X128075141Y-52010761D01*
X128075700Y-52022619D01*
X128075700Y-57006206D01*
X128066109Y-57054424D01*
X128038795Y-57095301D01*
X125561595Y-59572500D01*
X125511436Y-59603238D01*
X125452789Y-59607854D01*
X125398439Y-59585341D01*
X125360233Y-59540608D01*
X125346500Y-59483405D01*
X125346500Y-57774331D01*
X125360737Y-57716151D01*
X125400230Y-57671118D01*
X125505681Y-57597281D01*
X125657681Y-57445281D01*
X125780976Y-57269197D01*
X125871822Y-57074377D01*
X125927458Y-56866742D01*
X125946193Y-56652600D01*
X125927458Y-56438458D01*
X125871822Y-56230823D01*
X125780976Y-56036004D01*
X125657681Y-55859919D01*
X125505681Y-55707919D01*
X125329598Y-55584624D01*
X125134776Y-55493777D01*
X124927142Y-55438142D01*
X124713000Y-55419407D01*
X124498858Y-55438142D01*
X124291223Y-55493778D01*
X124291220Y-55493779D01*
X124291221Y-55493779D01*
X124096402Y-55584624D01*
X123920316Y-55707921D01*
X123768321Y-55859916D01*
X123645024Y-56036002D01*
X123588925Y-56156308D01*
X123554178Y-56230823D01*
X123498585Y-56438298D01*
X123498542Y-56438459D01*
X123481916Y-56628499D01*
X123479807Y-56652600D01*
X123483342Y-56693000D01*
X123498542Y-56866742D01*
X123554177Y-57074376D01*
X123645024Y-57269198D01*
X123736853Y-57400343D01*
X123768319Y-57445281D01*
X123920319Y-57597281D01*
X124025770Y-57671118D01*
X124065263Y-57716151D01*
X124079500Y-57774331D01*
X124079500Y-60366009D01*
X124069909Y-60414227D01*
X124042595Y-60455104D01*
X122549704Y-61947995D01*
X122508827Y-61975309D01*
X122460609Y-61984900D01*
X110681953Y-61984900D01*
X110661163Y-61982604D01*
X110590101Y-61984838D01*
X110586143Y-61984900D01*
X110558242Y-61984900D01*
X110554234Y-61985406D01*
X110542413Y-61986336D01*
X110498208Y-61987725D01*
X110478751Y-61993378D01*
X110459401Y-61997386D01*
X110439302Y-61999925D01*
X110398193Y-62016202D01*
X110386965Y-62020046D01*
X110344508Y-62032381D01*
X110327064Y-62042697D01*
X110309317Y-62051390D01*
X110290484Y-62058846D01*
X110254711Y-62084837D01*
X110244793Y-62091351D01*
X110206739Y-62113857D01*
X110192412Y-62128183D01*
X110177383Y-62141018D01*
X110160994Y-62152925D01*
X110132801Y-62187004D01*
X110124813Y-62195781D01*
X107928516Y-64392077D01*
X107867822Y-64425739D01*
X107798510Y-64422155D01*
X107700640Y-64388557D01*
X107700635Y-64388556D01*
X107478569Y-64351500D01*
X107253431Y-64351500D01*
X107031365Y-64388556D01*
X107031362Y-64388556D01*
X107031362Y-64388557D01*
X106818426Y-64461657D01*
X106620421Y-64568812D01*
X106442762Y-64707091D01*
X106290275Y-64872735D01*
X106201182Y-65009101D01*
X106155669Y-65050999D01*
X106095700Y-65066185D01*
X106035731Y-65050999D01*
X105990217Y-65009101D01*
X105901321Y-64873037D01*
X105748903Y-64707466D01*
X105571302Y-64569233D01*
X105373368Y-64462116D01*
X105160514Y-64389044D01*
X105080000Y-64375609D01*
X105080000Y-67044391D01*
X105160514Y-67030955D01*
X105373368Y-66957883D01*
X105571302Y-66850766D01*
X105748903Y-66712533D01*
X105901323Y-66546960D01*
X105990217Y-66410899D01*
X106035730Y-66369000D01*
X106095700Y-66353814D01*
X106155669Y-66369000D01*
X106201183Y-66410898D01*
X106290278Y-66547268D01*
X106419295Y-66687417D01*
X106442762Y-66712908D01*
X106620421Y-66851187D01*
X106620424Y-66851189D01*
X106818426Y-66958342D01*
X107031365Y-67031444D01*
X107253431Y-67068500D01*
X107478566Y-67068500D01*
X107478569Y-67068500D01*
X107700635Y-67031444D01*
X107913574Y-66958342D01*
X108111576Y-66851189D01*
X108289240Y-66712906D01*
X108441722Y-66547268D01*
X108530518Y-66411354D01*
X108576031Y-66369458D01*
X108636000Y-66354272D01*
X108695969Y-66369458D01*
X108741481Y-66411354D01*
X108830278Y-66547268D01*
X108959295Y-66687417D01*
X108982762Y-66712908D01*
X109160421Y-66851187D01*
X109160424Y-66851189D01*
X109358426Y-66958342D01*
X109571365Y-67031444D01*
X109793431Y-67068500D01*
X110018566Y-67068500D01*
X110018569Y-67068500D01*
X110240635Y-67031444D01*
X110453574Y-66958342D01*
X110651576Y-66851189D01*
X110829240Y-66712906D01*
X110981722Y-66547268D01*
X111070518Y-66411354D01*
X111116031Y-66369458D01*
X111176000Y-66354272D01*
X111235969Y-66369458D01*
X111281481Y-66411354D01*
X111370278Y-66547268D01*
X111499295Y-66687417D01*
X111522762Y-66712908D01*
X111700421Y-66851187D01*
X111700424Y-66851189D01*
X111898426Y-66958342D01*
X112111365Y-67031444D01*
X112333431Y-67068500D01*
X112558566Y-67068500D01*
X112558569Y-67068500D01*
X112780635Y-67031444D01*
X112993574Y-66958342D01*
X113191576Y-66851189D01*
X113369240Y-66712906D01*
X113521722Y-66547268D01*
X113610518Y-66411354D01*
X113656031Y-66369458D01*
X113716000Y-66354272D01*
X113775969Y-66369458D01*
X113821481Y-66411354D01*
X113910278Y-66547268D01*
X114039295Y-66687417D01*
X114062762Y-66712908D01*
X114240421Y-66851187D01*
X114240424Y-66851189D01*
X114438426Y-66958342D01*
X114651365Y-67031444D01*
X114873431Y-67068500D01*
X115098566Y-67068500D01*
X115098569Y-67068500D01*
X115320635Y-67031444D01*
X115533574Y-66958342D01*
X115731576Y-66851189D01*
X115909240Y-66712906D01*
X116061722Y-66547268D01*
X116150518Y-66411354D01*
X116196031Y-66369458D01*
X116256000Y-66354272D01*
X116315969Y-66369458D01*
X116361481Y-66411354D01*
X116450278Y-66547268D01*
X116579295Y-66687417D01*
X116602762Y-66712908D01*
X116780421Y-66851187D01*
X116780424Y-66851189D01*
X116978426Y-66958342D01*
X117191365Y-67031444D01*
X117413431Y-67068500D01*
X117638566Y-67068500D01*
X117638569Y-67068500D01*
X117860635Y-67031444D01*
X118073574Y-66958342D01*
X118271576Y-66851189D01*
X118449240Y-66712906D01*
X118601722Y-66547268D01*
X118690518Y-66411354D01*
X118736031Y-66369458D01*
X118796000Y-66354272D01*
X118855969Y-66369458D01*
X118901481Y-66411354D01*
X118990278Y-66547268D01*
X119119295Y-66687417D01*
X119142762Y-66712908D01*
X119320421Y-66851187D01*
X119320424Y-66851189D01*
X119518426Y-66958342D01*
X119731365Y-67031444D01*
X119953431Y-67068500D01*
X120178566Y-67068500D01*
X120178569Y-67068500D01*
X120400635Y-67031444D01*
X120613574Y-66958342D01*
X120811576Y-66851189D01*
X120989240Y-66712906D01*
X121141722Y-66547268D01*
X121230518Y-66411354D01*
X121276031Y-66369458D01*
X121336000Y-66354272D01*
X121395969Y-66369458D01*
X121441481Y-66411354D01*
X121530278Y-66547268D01*
X121659295Y-66687417D01*
X121682762Y-66712908D01*
X121860421Y-66851187D01*
X121860424Y-66851189D01*
X122058426Y-66958342D01*
X122271365Y-67031444D01*
X122493431Y-67068500D01*
X122718566Y-67068500D01*
X122718569Y-67068500D01*
X122940635Y-67031444D01*
X123153574Y-66958342D01*
X123351576Y-66851189D01*
X123529240Y-66712906D01*
X123681722Y-66547268D01*
X123770518Y-66411354D01*
X123816031Y-66369458D01*
X123876000Y-66354272D01*
X123935969Y-66369458D01*
X123981481Y-66411354D01*
X124070278Y-66547268D01*
X124199295Y-66687417D01*
X124222762Y-66712908D01*
X124400421Y-66851187D01*
X124400424Y-66851189D01*
X124598426Y-66958342D01*
X124811365Y-67031444D01*
X125033431Y-67068500D01*
X125258566Y-67068500D01*
X125258569Y-67068500D01*
X125480635Y-67031444D01*
X125693574Y-66958342D01*
X125693573Y-66958342D01*
X125703449Y-66954952D01*
X125703958Y-66956436D01*
X125754108Y-66944289D01*
X125816000Y-66962023D01*
X125861051Y-67008017D01*
X125877500Y-67070262D01*
X125877500Y-67205406D01*
X125867909Y-67253624D01*
X125840595Y-67294501D01*
X122598336Y-70536757D01*
X122582016Y-70549833D01*
X122533370Y-70601635D01*
X122530620Y-70604473D01*
X122510868Y-70624226D01*
X122510864Y-70624230D01*
X122510865Y-70624230D01*
X122508379Y-70627433D01*
X122500687Y-70636439D01*
X122470413Y-70668678D01*
X122460652Y-70686434D01*
X122449801Y-70702952D01*
X122437385Y-70718959D01*
X122419824Y-70759539D01*
X122414604Y-70770195D01*
X122393304Y-70808940D01*
X122388267Y-70828559D01*
X122381864Y-70847261D01*
X122373818Y-70865855D01*
X122366901Y-70909524D01*
X122364495Y-70921144D01*
X122353500Y-70963970D01*
X122353500Y-70984224D01*
X122351949Y-71003934D01*
X122348779Y-71023942D01*
X122352941Y-71067961D01*
X122353500Y-71079819D01*
X122353500Y-73634607D01*
X122339263Y-73692787D01*
X122299772Y-73737818D01*
X122231659Y-73785511D01*
X122142696Y-73847804D01*
X121980804Y-74009696D01*
X121849477Y-74197249D01*
X121752715Y-74404756D01*
X121693457Y-74625912D01*
X121673502Y-74854000D01*
X121693457Y-75082087D01*
X121752715Y-75303243D01*
X121849477Y-75510750D01*
X121980804Y-75698303D01*
X122142696Y-75860195D01*
X122142699Y-75860197D01*
X122142700Y-75860198D01*
X122299772Y-75970181D01*
X122339263Y-76015213D01*
X122353500Y-76073393D01*
X122353500Y-77310147D01*
X122351204Y-77330935D01*
X122353438Y-77401986D01*
X122353500Y-77405945D01*
X122353500Y-77433857D01*
X122354007Y-77437873D01*
X122354937Y-77449696D01*
X122356326Y-77493892D01*
X122361977Y-77513341D01*
X122365986Y-77532696D01*
X122368525Y-77552794D01*
X122384801Y-77593903D01*
X122388644Y-77605130D01*
X122400980Y-77647590D01*
X122411294Y-77665030D01*
X122419987Y-77682774D01*
X122427448Y-77701617D01*
X122427449Y-77701619D01*
X122453431Y-77737380D01*
X122459948Y-77747301D01*
X122482458Y-77785363D01*
X122496778Y-77799683D01*
X122509618Y-77814716D01*
X122521526Y-77831105D01*
X122555598Y-77859292D01*
X122564378Y-77867282D01*
X138227751Y-93530655D01*
X138240834Y-93546985D01*
X138292665Y-93595656D01*
X138295477Y-93598381D01*
X138315230Y-93618134D01*
X138317183Y-93619649D01*
X138318424Y-93620612D01*
X138327444Y-93628316D01*
X138359679Y-93658586D01*
X138377435Y-93668347D01*
X138393951Y-93679196D01*
X138409959Y-93691613D01*
X138433609Y-93701847D01*
X138450525Y-93709167D01*
X138461188Y-93714391D01*
X138499935Y-93735693D01*
X138499937Y-93735693D01*
X138499940Y-93735695D01*
X138519574Y-93740736D01*
X138538259Y-93747134D01*
X138556855Y-93755181D01*
X138600530Y-93762098D01*
X138612125Y-93764498D01*
X138654970Y-93775500D01*
X138675224Y-93775500D01*
X138694934Y-93777051D01*
X138714942Y-93780220D01*
X138714942Y-93780219D01*
X138714943Y-93780220D01*
X138758961Y-93776058D01*
X138770819Y-93775500D01*
X148834406Y-93775500D01*
X148882624Y-93785091D01*
X148923501Y-93812405D01*
X150129595Y-95018499D01*
X150156909Y-95059376D01*
X150166500Y-95107594D01*
X150166500Y-95975500D01*
X150149619Y-96038500D01*
X150103500Y-96084619D01*
X150040500Y-96101500D01*
X149901362Y-96101500D01*
X149840799Y-96108011D01*
X149703794Y-96159111D01*
X149586738Y-96246738D01*
X149499111Y-96363794D01*
X149455002Y-96482056D01*
X149448011Y-96500799D01*
X149441500Y-96561362D01*
X149441500Y-98358638D01*
X149448011Y-98419201D01*
X149464173Y-98462533D01*
X149499111Y-98556205D01*
X149586738Y-98673261D01*
X149703794Y-98760888D01*
X149703795Y-98760888D01*
X149703796Y-98760889D01*
X149840799Y-98811989D01*
X149901362Y-98818500D01*
X151698638Y-98818500D01*
X151759201Y-98811989D01*
X151896204Y-98760889D01*
X152013261Y-98673261D01*
X152100889Y-98556204D01*
X152144999Y-98437941D01*
X152181530Y-98385903D01*
X152238821Y-98358327D01*
X152302282Y-98362237D01*
X152355753Y-98396636D01*
X152393780Y-98437943D01*
X152416762Y-98462908D01*
X152594421Y-98601187D01*
X152594424Y-98601189D01*
X152792426Y-98708342D01*
X153005365Y-98781444D01*
X153227431Y-98818500D01*
X153452566Y-98818500D01*
X153452569Y-98818500D01*
X153674635Y-98781444D01*
X153887574Y-98708342D01*
X154085576Y-98601189D01*
X154263240Y-98462906D01*
X154415722Y-98297268D01*
X154504518Y-98161354D01*
X154550031Y-98119458D01*
X154610000Y-98104272D01*
X154669969Y-98119458D01*
X154715481Y-98161354D01*
X154804278Y-98297268D01*
X154916525Y-98419200D01*
X154956762Y-98462908D01*
X155134421Y-98601187D01*
X155134424Y-98601189D01*
X155332426Y-98708342D01*
X155545365Y-98781444D01*
X155767431Y-98818500D01*
X155992566Y-98818500D01*
X155992569Y-98818500D01*
X156214635Y-98781444D01*
X156427574Y-98708342D01*
X156625576Y-98601189D01*
X156803240Y-98462906D01*
X156955722Y-98297268D01*
X157044518Y-98161354D01*
X157090031Y-98119458D01*
X157150000Y-98104272D01*
X157209969Y-98119458D01*
X157255481Y-98161354D01*
X157344278Y-98297268D01*
X157456525Y-98419200D01*
X157496762Y-98462908D01*
X157674421Y-98601187D01*
X157674424Y-98601189D01*
X157872426Y-98708342D01*
X158085365Y-98781444D01*
X158307431Y-98818500D01*
X158532566Y-98818500D01*
X158532569Y-98818500D01*
X158754635Y-98781444D01*
X158967574Y-98708342D01*
X159165576Y-98601189D01*
X159343240Y-98462906D01*
X159495722Y-98297268D01*
X159584518Y-98161354D01*
X159630031Y-98119458D01*
X159690000Y-98104272D01*
X159749969Y-98119458D01*
X159795481Y-98161354D01*
X159884278Y-98297268D01*
X159996525Y-98419200D01*
X160036762Y-98462908D01*
X160214421Y-98601187D01*
X160214424Y-98601189D01*
X160412426Y-98708342D01*
X160625365Y-98781444D01*
X160847431Y-98818500D01*
X161072566Y-98818500D01*
X161072569Y-98818500D01*
X161294635Y-98781444D01*
X161507574Y-98708342D01*
X161705576Y-98601189D01*
X161883240Y-98462906D01*
X162035722Y-98297268D01*
X162124518Y-98161354D01*
X162170031Y-98119458D01*
X162230000Y-98104272D01*
X162289969Y-98119458D01*
X162335481Y-98161354D01*
X162424278Y-98297268D01*
X162536525Y-98419200D01*
X162576762Y-98462908D01*
X162754421Y-98601187D01*
X162754424Y-98601189D01*
X162952426Y-98708342D01*
X163165365Y-98781444D01*
X163387431Y-98818500D01*
X163612566Y-98818500D01*
X163612569Y-98818500D01*
X163834635Y-98781444D01*
X164047574Y-98708342D01*
X164245576Y-98601189D01*
X164423240Y-98462906D01*
X164575722Y-98297268D01*
X164698860Y-98108791D01*
X164789296Y-97902616D01*
X164844564Y-97684368D01*
X164863156Y-97460000D01*
X164844564Y-97235632D01*
X164789296Y-97017384D01*
X164698860Y-96811209D01*
X164575722Y-96622732D01*
X164423240Y-96457094D01*
X164423239Y-96457093D01*
X164423237Y-96457091D01*
X164245578Y-96318812D01*
X164047573Y-96211657D01*
X163882354Y-96154938D01*
X163834635Y-96138556D01*
X163612569Y-96101500D01*
X163387431Y-96101500D01*
X163165365Y-96138556D01*
X163165362Y-96138556D01*
X163165362Y-96138557D01*
X162952426Y-96211657D01*
X162754421Y-96318812D01*
X162576762Y-96457091D01*
X162424278Y-96622731D01*
X162335483Y-96758643D01*
X162289969Y-96800541D01*
X162230000Y-96815727D01*
X162170031Y-96800541D01*
X162124517Y-96758643D01*
X162035721Y-96622731D01*
X161954126Y-96534096D01*
X161883240Y-96457094D01*
X161883239Y-96457093D01*
X161883237Y-96457091D01*
X161844109Y-96426636D01*
X161808303Y-96382543D01*
X161795500Y-96327205D01*
X161795500Y-93741661D01*
X161805091Y-93693443D01*
X161832404Y-93652566D01*
X161944504Y-93540466D01*
X162306331Y-93178637D01*
X162353806Y-93148806D01*
X162456015Y-93113043D01*
X162610281Y-93016111D01*
X162739111Y-92887281D01*
X162836043Y-92733015D01*
X162896217Y-92561047D01*
X162916616Y-92380000D01*
X162896217Y-92198953D01*
X162836043Y-92026985D01*
X162739111Y-91872719D01*
X162739110Y-91872717D01*
X162610282Y-91743889D01*
X162456014Y-91646956D01*
X162284049Y-91586783D01*
X162103000Y-91566384D01*
X161921950Y-91586783D01*
X161749985Y-91646956D01*
X161595717Y-91743889D01*
X161466889Y-91872717D01*
X161369958Y-92026982D01*
X161334192Y-92129192D01*
X161304358Y-92176670D01*
X160603856Y-92877172D01*
X160598317Y-92882388D01*
X160552782Y-92922729D01*
X160518238Y-92972773D01*
X160513731Y-92978898D01*
X160476224Y-93026774D01*
X160472036Y-93036078D01*
X160460843Y-93055923D01*
X160455048Y-93064319D01*
X160433482Y-93121183D01*
X160430570Y-93128211D01*
X160405611Y-93183668D01*
X160403771Y-93193710D01*
X160397651Y-93215662D01*
X160394035Y-93225197D01*
X160386705Y-93285554D01*
X160385561Y-93293071D01*
X160374597Y-93352906D01*
X160378270Y-93413610D01*
X160378500Y-93421218D01*
X160378500Y-96154938D01*
X160360741Y-96219435D01*
X160312469Y-96265752D01*
X160214421Y-96318812D01*
X160036762Y-96457091D01*
X159884278Y-96622731D01*
X159795483Y-96758643D01*
X159749969Y-96800541D01*
X159690000Y-96815727D01*
X159630031Y-96800541D01*
X159584517Y-96758643D01*
X159495721Y-96622731D01*
X159414126Y-96534096D01*
X159343240Y-96457094D01*
X159343239Y-96457093D01*
X159343237Y-96457091D01*
X159165578Y-96318812D01*
X158967573Y-96211657D01*
X158802354Y-96154938D01*
X158754635Y-96138556D01*
X158532569Y-96101500D01*
X158307431Y-96101500D01*
X158085365Y-96138556D01*
X158085362Y-96138556D01*
X158085362Y-96138557D01*
X157872426Y-96211657D01*
X157674421Y-96318812D01*
X157496762Y-96457091D01*
X157344278Y-96622731D01*
X157255483Y-96758643D01*
X157209969Y-96800541D01*
X157150000Y-96815727D01*
X157090031Y-96800541D01*
X157044517Y-96758643D01*
X156955721Y-96622731D01*
X156874126Y-96534096D01*
X156803240Y-96457094D01*
X156803239Y-96457093D01*
X156803237Y-96457091D01*
X156625578Y-96318812D01*
X156427573Y-96211657D01*
X156262354Y-96154938D01*
X156214635Y-96138556D01*
X155992569Y-96101500D01*
X155767431Y-96101500D01*
X155545365Y-96138556D01*
X155545362Y-96138556D01*
X155545362Y-96138557D01*
X155332426Y-96211657D01*
X155134421Y-96318812D01*
X154956762Y-96457091D01*
X154804278Y-96622731D01*
X154715483Y-96758643D01*
X154669969Y-96800541D01*
X154610000Y-96815727D01*
X154550031Y-96800541D01*
X154504517Y-96758643D01*
X154415721Y-96622731D01*
X154334126Y-96534096D01*
X154263240Y-96457094D01*
X154263239Y-96457093D01*
X154263237Y-96457091D01*
X154085578Y-96318812D01*
X153887573Y-96211657D01*
X153722354Y-96154938D01*
X153674635Y-96138556D01*
X153452569Y-96101500D01*
X153227431Y-96101500D01*
X153005365Y-96138556D01*
X153005362Y-96138556D01*
X153005362Y-96138557D01*
X152792426Y-96211657D01*
X152594421Y-96318812D01*
X152416758Y-96457094D01*
X152355754Y-96523362D01*
X152302282Y-96557762D01*
X152238820Y-96561672D01*
X152181530Y-96534096D01*
X152144998Y-96482056D01*
X152135688Y-96457094D01*
X152100889Y-96363796D01*
X152100888Y-96363794D01*
X152013261Y-96246738D01*
X151896205Y-96159111D01*
X151827702Y-96133561D01*
X151759201Y-96108011D01*
X151698638Y-96101500D01*
X151559500Y-96101500D01*
X151496500Y-96084619D01*
X151450381Y-96038500D01*
X151433500Y-95975500D01*
X151433500Y-94876854D01*
X151435795Y-94856064D01*
X151433562Y-94785002D01*
X151433500Y-94781044D01*
X151433500Y-94753149D01*
X151433500Y-94753144D01*
X151432993Y-94749138D01*
X151432062Y-94737305D01*
X151430674Y-94693111D01*
X151425019Y-94673647D01*
X151421013Y-94654307D01*
X151418474Y-94634203D01*
X151402195Y-94593087D01*
X151398356Y-94581872D01*
X151386019Y-94539407D01*
X151375703Y-94521964D01*
X151367007Y-94504214D01*
X151359552Y-94485383D01*
X151333554Y-94449600D01*
X151327058Y-94439710D01*
X151304542Y-94401638D01*
X151290212Y-94387308D01*
X151277378Y-94372281D01*
X151265472Y-94355893D01*
X151265471Y-94355892D01*
X151231394Y-94327700D01*
X151222616Y-94319712D01*
X149656244Y-92753339D01*
X149643171Y-92737021D01*
X149591348Y-92688356D01*
X149588536Y-92685631D01*
X149568770Y-92665865D01*
X149565575Y-92663386D01*
X149556553Y-92655681D01*
X149524320Y-92625413D01*
X149506567Y-92615653D01*
X149490041Y-92604797D01*
X149474041Y-92592386D01*
X149433466Y-92574828D01*
X149422804Y-92569604D01*
X149384063Y-92548305D01*
X149370313Y-92544775D01*
X149364437Y-92543266D01*
X149345731Y-92536862D01*
X149327145Y-92528819D01*
X149283475Y-92521902D01*
X149271853Y-92519495D01*
X149229030Y-92508500D01*
X149229029Y-92508500D01*
X149208776Y-92508500D01*
X149189066Y-92506949D01*
X149169057Y-92503779D01*
X149125039Y-92507941D01*
X149113181Y-92508500D01*
X139049595Y-92508500D01*
X139001377Y-92498909D01*
X138960500Y-92471595D01*
X123657405Y-77168500D01*
X123630091Y-77127623D01*
X123620500Y-77079405D01*
X123620500Y-76073393D01*
X123634737Y-76015213D01*
X123674227Y-75970181D01*
X123831300Y-75860198D01*
X123993198Y-75698300D01*
X124124523Y-75510749D01*
X124221284Y-75303243D01*
X124280543Y-75082087D01*
X124300498Y-74854000D01*
X124280543Y-74625913D01*
X124221284Y-74404757D01*
X124215146Y-74391595D01*
X124124522Y-74197249D01*
X123993195Y-74009696D01*
X123831303Y-73847804D01*
X123809158Y-73832297D01*
X123674227Y-73737818D01*
X123634737Y-73692787D01*
X123620500Y-73634607D01*
X123620500Y-71358594D01*
X123630091Y-71310376D01*
X123657405Y-71269499D01*
X124461945Y-70464959D01*
X126899658Y-68027244D01*
X126915979Y-68014170D01*
X126918014Y-68012002D01*
X126918018Y-68012000D01*
X126964676Y-67962312D01*
X126967367Y-67959535D01*
X126987135Y-67939769D01*
X126989611Y-67936576D01*
X126997316Y-67927553D01*
X127027586Y-67895321D01*
X127037345Y-67877567D01*
X127048198Y-67861045D01*
X127060614Y-67845040D01*
X127078174Y-67804459D01*
X127083388Y-67793815D01*
X127104695Y-67755060D01*
X127109732Y-67735439D01*
X127116138Y-67716730D01*
X127124181Y-67698144D01*
X127131096Y-67654481D01*
X127133504Y-67642853D01*
X127144500Y-67600029D01*
X127144500Y-67579776D01*
X127146051Y-67560066D01*
X127149220Y-67540057D01*
X127145059Y-67496039D01*
X127144500Y-67484181D01*
X127144500Y-67136901D01*
X127158471Y-67079235D01*
X127197284Y-67034356D01*
X127252334Y-67012217D01*
X127311411Y-67017727D01*
X127351365Y-67031444D01*
X127573431Y-67068500D01*
X127798566Y-67068500D01*
X127798569Y-67068500D01*
X128020635Y-67031444D01*
X128233574Y-66958342D01*
X128271543Y-66937793D01*
X128322838Y-66922906D01*
X128375693Y-66930606D01*
X128420608Y-66959512D01*
X129867595Y-68406499D01*
X129894909Y-68447376D01*
X129904500Y-68495594D01*
X129904500Y-69748147D01*
X129902204Y-69768935D01*
X129904438Y-69839986D01*
X129904500Y-69843945D01*
X129904500Y-69871857D01*
X129905007Y-69875873D01*
X129905937Y-69887696D01*
X129907326Y-69931892D01*
X129912977Y-69951341D01*
X129916986Y-69970696D01*
X129919525Y-69990794D01*
X129935801Y-70031903D01*
X129939644Y-70043130D01*
X129951980Y-70085590D01*
X129962294Y-70103030D01*
X129970987Y-70120774D01*
X129978448Y-70139617D01*
X129978449Y-70139619D01*
X130004431Y-70175380D01*
X130010948Y-70185301D01*
X130033458Y-70223363D01*
X130047778Y-70237683D01*
X130060618Y-70252716D01*
X130072526Y-70269105D01*
X130106598Y-70297292D01*
X130115378Y-70305282D01*
X131163184Y-71353089D01*
X131168014Y-71359315D01*
X131190778Y-71382079D01*
X131203618Y-71397112D01*
X131215526Y-71413501D01*
X131249598Y-71441688D01*
X131258378Y-71449678D01*
X137094355Y-77285655D01*
X137107438Y-77301985D01*
X137159269Y-77350656D01*
X137162081Y-77353381D01*
X137181834Y-77373134D01*
X137183430Y-77374372D01*
X137185028Y-77375612D01*
X137194048Y-77383316D01*
X137226283Y-77413586D01*
X137244039Y-77423347D01*
X137260555Y-77434196D01*
X137276563Y-77446613D01*
X137316757Y-77464006D01*
X137317129Y-77464167D01*
X137327792Y-77469391D01*
X137366542Y-77490694D01*
X137366544Y-77490695D01*
X137386166Y-77495733D01*
X137404871Y-77502137D01*
X137423459Y-77510181D01*
X137467126Y-77517096D01*
X137478733Y-77519500D01*
X137521574Y-77530500D01*
X137541835Y-77530500D01*
X137561543Y-77532050D01*
X137581547Y-77535219D01*
X137581547Y-77535218D01*
X137581548Y-77535219D01*
X137625558Y-77531059D01*
X137637415Y-77530500D01*
X142579939Y-77530500D01*
X142600727Y-77532795D01*
X142603699Y-77532701D01*
X142603701Y-77532702D01*
X142671777Y-77530562D01*
X142675737Y-77530500D01*
X142703644Y-77530500D01*
X142703648Y-77530500D01*
X142707657Y-77529993D01*
X142719491Y-77529061D01*
X142763681Y-77527673D01*
X142783130Y-77522021D01*
X142802490Y-77518012D01*
X142822589Y-77515474D01*
X142863707Y-77499193D01*
X142874909Y-77495357D01*
X142917385Y-77483018D01*
X142934831Y-77472699D01*
X142952572Y-77464009D01*
X142971409Y-77456552D01*
X143007184Y-77430558D01*
X143017095Y-77424048D01*
X143055154Y-77401542D01*
X143069483Y-77387212D01*
X143084511Y-77374377D01*
X143100899Y-77362472D01*
X143129095Y-77328386D01*
X143137064Y-77319630D01*
X146364322Y-74092373D01*
X146416576Y-74060976D01*
X146477457Y-74057785D01*
X146532709Y-74083549D01*
X146569398Y-74132238D01*
X146578935Y-74192450D01*
X146565502Y-74346000D01*
X146570643Y-74404757D01*
X146585457Y-74574087D01*
X146644715Y-74795243D01*
X146741477Y-75002750D01*
X146872804Y-75190303D01*
X147034696Y-75352195D01*
X147222249Y-75483522D01*
X147429756Y-75580284D01*
X147489014Y-75596162D01*
X147650913Y-75639543D01*
X147879000Y-75659498D01*
X148107087Y-75639543D01*
X148328243Y-75580284D01*
X148535749Y-75483523D01*
X148723300Y-75352198D01*
X148885198Y-75190300D01*
X149016523Y-75002749D01*
X149113284Y-74795243D01*
X149172543Y-74574087D01*
X149192498Y-74346000D01*
X149172543Y-74117913D01*
X149113284Y-73896757D01*
X149039212Y-73737909D01*
X149016522Y-73689249D01*
X148926340Y-73560457D01*
X148885198Y-73501700D01*
X148885197Y-73501699D01*
X148885195Y-73501696D01*
X148723303Y-73339804D01*
X148535750Y-73208477D01*
X148328243Y-73111715D01*
X148107087Y-73052457D01*
X148107086Y-73052456D01*
X147879000Y-73032502D01*
X147878999Y-73032502D01*
X147835486Y-73036308D01*
X147725450Y-73045935D01*
X147665238Y-73036398D01*
X147616549Y-72999709D01*
X147590785Y-72944457D01*
X147593976Y-72883576D01*
X147625373Y-72831322D01*
X148151659Y-72305036D01*
X148167980Y-72291961D01*
X148170014Y-72289793D01*
X148170018Y-72289792D01*
X148216660Y-72240121D01*
X148219351Y-72237344D01*
X148239135Y-72217562D01*
X148241621Y-72214356D01*
X148249310Y-72205353D01*
X148279586Y-72173113D01*
X148289342Y-72155363D01*
X148300195Y-72138842D01*
X148312614Y-72122833D01*
X148330175Y-72082246D01*
X148335388Y-72071605D01*
X148356695Y-72032852D01*
X148361733Y-72013226D01*
X148368137Y-71994524D01*
X148376181Y-71975936D01*
X148383096Y-71932274D01*
X148385504Y-71920645D01*
X148396500Y-71877821D01*
X148396500Y-71857568D01*
X148398051Y-71837858D01*
X148401220Y-71817849D01*
X148397059Y-71773831D01*
X148396500Y-71761973D01*
X148396500Y-58266594D01*
X148406091Y-58218376D01*
X148433405Y-58177499D01*
X148866499Y-57744405D01*
X148907376Y-57717091D01*
X148955594Y-57707500D01*
X149192147Y-57707500D01*
X149212935Y-57709795D01*
X149215907Y-57709701D01*
X149215909Y-57709702D01*
X149283985Y-57707562D01*
X149287945Y-57707500D01*
X149315852Y-57707500D01*
X149315856Y-57707500D01*
X149319865Y-57706993D01*
X149331699Y-57706061D01*
X149375889Y-57704673D01*
X149395338Y-57699021D01*
X149414698Y-57695012D01*
X149434797Y-57692474D01*
X149475915Y-57676193D01*
X149487117Y-57672357D01*
X149529593Y-57660018D01*
X149547039Y-57649699D01*
X149564780Y-57641009D01*
X149583617Y-57633552D01*
X149619392Y-57607558D01*
X149629303Y-57601048D01*
X149667362Y-57578542D01*
X149681691Y-57564212D01*
X149696719Y-57551377D01*
X149713107Y-57539472D01*
X149741303Y-57505386D01*
X149749272Y-57496630D01*
X149845562Y-57400340D01*
X149879985Y-57375916D01*
X149920543Y-57364231D01*
X149965047Y-57359217D01*
X150137015Y-57299043D01*
X150291281Y-57202111D01*
X150420111Y-57073281D01*
X150517043Y-56919015D01*
X150577217Y-56747047D01*
X150597616Y-56566000D01*
X150577217Y-56384953D01*
X150517043Y-56212985D01*
X150499459Y-56185000D01*
X152844000Y-56185000D01*
X152844000Y-56729589D01*
X152850505Y-56790093D01*
X152901554Y-56926962D01*
X152989095Y-57043904D01*
X153106037Y-57131445D01*
X153242906Y-57182494D01*
X153303411Y-57189000D01*
X153848000Y-57189000D01*
X153848000Y-56185000D01*
X152844000Y-56185000D01*
X150499459Y-56185000D01*
X150481588Y-56156559D01*
X150420110Y-56058717D01*
X150291282Y-55929889D01*
X150137014Y-55832956D01*
X149965049Y-55772783D01*
X149812250Y-55755567D01*
X149751536Y-55731738D01*
X149710871Y-55680745D01*
X149710306Y-55677000D01*
X152844000Y-55677000D01*
X153848000Y-55677000D01*
X153848000Y-54673000D01*
X153303411Y-54673000D01*
X153242906Y-54679505D01*
X153106037Y-54730554D01*
X152989095Y-54818095D01*
X152901554Y-54935037D01*
X152850505Y-55071906D01*
X152844000Y-55132411D01*
X152844000Y-55677000D01*
X149710306Y-55677000D01*
X149701150Y-55616255D01*
X149708616Y-55550000D01*
X149688217Y-55368953D01*
X149628043Y-55196985D01*
X149615593Y-55177171D01*
X149531110Y-55042717D01*
X149402282Y-54913889D01*
X149248014Y-54816956D01*
X149076049Y-54756783D01*
X149061734Y-54755170D01*
X149041235Y-54752860D01*
X148988309Y-54734340D01*
X148948658Y-54694688D01*
X148930139Y-54641763D01*
X148926217Y-54606953D01*
X148866043Y-54434985D01*
X148850667Y-54410515D01*
X148769110Y-54280717D01*
X148640282Y-54151889D01*
X148605743Y-54130187D01*
X148561824Y-54083207D01*
X148546811Y-54020673D01*
X148564614Y-53958875D01*
X148610597Y-53913913D01*
X148672779Y-53897500D01*
X153660406Y-53897500D01*
X153708624Y-53907091D01*
X153749501Y-53934405D01*
X154332952Y-54517856D01*
X154365563Y-54574338D01*
X154365564Y-54639559D01*
X154356000Y-54656126D01*
X154356000Y-57189000D01*
X154900589Y-57189000D01*
X154961093Y-57182494D01*
X155097962Y-57131445D01*
X155214904Y-57043904D01*
X155302445Y-56926962D01*
X155353494Y-56790093D01*
X155360000Y-56729589D01*
X155360000Y-56693863D01*
X155375798Y-56632777D01*
X155419230Y-56587009D01*
X155479405Y-56568036D01*
X155541234Y-56580615D01*
X155589213Y-56621592D01*
X155674253Y-56743041D01*
X155829958Y-56898746D01*
X155829961Y-56898748D01*
X155829962Y-56898749D01*
X156010346Y-57025056D01*
X156209924Y-57118120D01*
X156259653Y-57131445D01*
X156422624Y-57175114D01*
X156422625Y-57175114D01*
X156422629Y-57175115D01*
X156642000Y-57194307D01*
X156861371Y-57175115D01*
X156865238Y-57174079D01*
X156936858Y-57154888D01*
X157074076Y-57118120D01*
X157273654Y-57025056D01*
X157454038Y-56898749D01*
X157609749Y-56743038D01*
X157736056Y-56562654D01*
X157797805Y-56430230D01*
X157844300Y-56377213D01*
X157912000Y-56357480D01*
X157979700Y-56377213D01*
X158026194Y-56430230D01*
X158030859Y-56440234D01*
X158087943Y-56562653D01*
X158214253Y-56743041D01*
X158369958Y-56898746D01*
X158369961Y-56898748D01*
X158369962Y-56898749D01*
X158550346Y-57025056D01*
X158749924Y-57118120D01*
X158799653Y-57131445D01*
X158962624Y-57175114D01*
X158962625Y-57175114D01*
X158962629Y-57175115D01*
X159182000Y-57194307D01*
X159401371Y-57175115D01*
X159405238Y-57174079D01*
X159476858Y-57154888D01*
X159614076Y-57118120D01*
X159813654Y-57025056D01*
X159994038Y-56898749D01*
X160149749Y-56743038D01*
X160276056Y-56562654D01*
X160337805Y-56430230D01*
X160384300Y-56377213D01*
X160452000Y-56357480D01*
X160519700Y-56377213D01*
X160566194Y-56430230D01*
X160570859Y-56440234D01*
X160627943Y-56562653D01*
X160754253Y-56743041D01*
X160909958Y-56898746D01*
X160909961Y-56898748D01*
X160909962Y-56898749D01*
X161090346Y-57025056D01*
X161289924Y-57118120D01*
X161339653Y-57131445D01*
X161502624Y-57175114D01*
X161502625Y-57175114D01*
X161502629Y-57175115D01*
X161722000Y-57194307D01*
X161941371Y-57175115D01*
X161945238Y-57174079D01*
X162016858Y-57154888D01*
X162154076Y-57118120D01*
X162353654Y-57025056D01*
X162534038Y-56898749D01*
X162689749Y-56743038D01*
X162816056Y-56562654D01*
X162909120Y-56363076D01*
X162966115Y-56150371D01*
X162985307Y-55931000D01*
X162966115Y-55711629D01*
X162965121Y-55707921D01*
X162909120Y-55498925D01*
X162906720Y-55493779D01*
X162816056Y-55299347D01*
X162689749Y-55118962D01*
X162689748Y-55118961D01*
X162689746Y-55118958D01*
X162534041Y-54963253D01*
X162353653Y-54836943D01*
X162154074Y-54743879D01*
X161941375Y-54686885D01*
X161722000Y-54667693D01*
X161502624Y-54686885D01*
X161289925Y-54743879D01*
X161090347Y-54836943D01*
X160909958Y-54963253D01*
X160754253Y-55118958D01*
X160627944Y-55299345D01*
X160566195Y-55431769D01*
X160519700Y-55484786D01*
X160452000Y-55504519D01*
X160384300Y-55484786D01*
X160337805Y-55431769D01*
X160297713Y-55345792D01*
X160276056Y-55299347D01*
X160272584Y-55294389D01*
X160149746Y-55118958D01*
X159994041Y-54963253D01*
X159813653Y-54836943D01*
X159614074Y-54743879D01*
X159401375Y-54686885D01*
X159182000Y-54667693D01*
X158962624Y-54686885D01*
X158749925Y-54743879D01*
X158550347Y-54836943D01*
X158369958Y-54963253D01*
X158214253Y-55118958D01*
X158087944Y-55299345D01*
X158026195Y-55431769D01*
X157979700Y-55484786D01*
X157912000Y-55504519D01*
X157844300Y-55484786D01*
X157797805Y-55431769D01*
X157757713Y-55345792D01*
X157736056Y-55299347D01*
X157732584Y-55294389D01*
X157609746Y-55118958D01*
X157454041Y-54963253D01*
X157273653Y-54836943D01*
X157074074Y-54743879D01*
X156861375Y-54686885D01*
X156642000Y-54667693D01*
X156422626Y-54686885D01*
X156391281Y-54695284D01*
X156326059Y-54695283D01*
X156269576Y-54662672D01*
X155387490Y-53780586D01*
X154482244Y-52875339D01*
X154469171Y-52859021D01*
X154417349Y-52810357D01*
X154414537Y-52807632D01*
X154394770Y-52787865D01*
X154391575Y-52785386D01*
X154382553Y-52777681D01*
X154350320Y-52747413D01*
X154332567Y-52737653D01*
X154316041Y-52726797D01*
X154300041Y-52714386D01*
X154259466Y-52696828D01*
X154248804Y-52691604D01*
X154210063Y-52670305D01*
X154196313Y-52666775D01*
X154190437Y-52665266D01*
X154171731Y-52658862D01*
X154153145Y-52650819D01*
X154109475Y-52643902D01*
X154097853Y-52641495D01*
X154055030Y-52630500D01*
X154055029Y-52630500D01*
X154034776Y-52630500D01*
X154015066Y-52628949D01*
X153995057Y-52625779D01*
X153951039Y-52629941D01*
X153939181Y-52630500D01*
X139303595Y-52630500D01*
X139255377Y-52620909D01*
X139214500Y-52593595D01*
X137246405Y-50625500D01*
X137219091Y-50584623D01*
X137209500Y-50536405D01*
X137209500Y-50476921D01*
X137227259Y-50412424D01*
X137275528Y-50366108D01*
X137321576Y-50341189D01*
X137499240Y-50202906D01*
X137651722Y-50037268D01*
X137740518Y-49901354D01*
X137786031Y-49859458D01*
X137846000Y-49844272D01*
X137905969Y-49859458D01*
X137951481Y-49901354D01*
X138040278Y-50037268D01*
X138152525Y-50159200D01*
X138192762Y-50202908D01*
X138370421Y-50341187D01*
X138370424Y-50341189D01*
X138568426Y-50448342D01*
X138781365Y-50521444D01*
X139003431Y-50558500D01*
X139228566Y-50558500D01*
X139228569Y-50558500D01*
X139450635Y-50521444D01*
X139663574Y-50448342D01*
X139861576Y-50341189D01*
X140039240Y-50202906D01*
X140191722Y-50037268D01*
X140280518Y-49901354D01*
X140326031Y-49859458D01*
X140386000Y-49844272D01*
X140445969Y-49859458D01*
X140491481Y-49901354D01*
X140580278Y-50037268D01*
X140692525Y-50159200D01*
X140732762Y-50202908D01*
X140910421Y-50341187D01*
X140910424Y-50341189D01*
X141108426Y-50448342D01*
X141321365Y-50521444D01*
X141543431Y-50558500D01*
X141768566Y-50558500D01*
X141768569Y-50558500D01*
X141990635Y-50521444D01*
X142203574Y-50448342D01*
X142401576Y-50341189D01*
X142579240Y-50202906D01*
X142675226Y-50098638D01*
X144361500Y-50098638D01*
X144368011Y-50159201D01*
X144384312Y-50202906D01*
X144419111Y-50296205D01*
X144506738Y-50413261D01*
X144623794Y-50500888D01*
X144623795Y-50500888D01*
X144623796Y-50500889D01*
X144760799Y-50551989D01*
X144821362Y-50558500D01*
X146618638Y-50558500D01*
X146679201Y-50551989D01*
X146816204Y-50500889D01*
X146933261Y-50413261D01*
X147020889Y-50296204D01*
X147064999Y-50177941D01*
X147101530Y-50125903D01*
X147158821Y-50098327D01*
X147222282Y-50102237D01*
X147275753Y-50136636D01*
X147313780Y-50177943D01*
X147336762Y-50202908D01*
X147514421Y-50341187D01*
X147514424Y-50341189D01*
X147712426Y-50448342D01*
X147925365Y-50521444D01*
X148147431Y-50558500D01*
X148372566Y-50558500D01*
X148372569Y-50558500D01*
X148594635Y-50521444D01*
X148807574Y-50448342D01*
X149005576Y-50341189D01*
X149183240Y-50202906D01*
X149335722Y-50037268D01*
X149424518Y-49901354D01*
X149470031Y-49859458D01*
X149530000Y-49844272D01*
X149589969Y-49859458D01*
X149635481Y-49901354D01*
X149724278Y-50037268D01*
X149836525Y-50159200D01*
X149876762Y-50202908D01*
X150054421Y-50341187D01*
X150054424Y-50341189D01*
X150252426Y-50448342D01*
X150465365Y-50521444D01*
X150687431Y-50558500D01*
X150912566Y-50558500D01*
X150912569Y-50558500D01*
X151134635Y-50521444D01*
X151347574Y-50448342D01*
X151545576Y-50341189D01*
X151723240Y-50202906D01*
X151875722Y-50037268D01*
X151964518Y-49901354D01*
X152010031Y-49859458D01*
X152070000Y-49844272D01*
X152129969Y-49859458D01*
X152175481Y-49901354D01*
X152264278Y-50037268D01*
X152376525Y-50159200D01*
X152416762Y-50202908D01*
X152594421Y-50341187D01*
X152594424Y-50341189D01*
X152792426Y-50448342D01*
X153005365Y-50521444D01*
X153227431Y-50558500D01*
X153452566Y-50558500D01*
X153452569Y-50558500D01*
X153674635Y-50521444D01*
X153887574Y-50448342D01*
X154085576Y-50341189D01*
X154263240Y-50202906D01*
X154415722Y-50037268D01*
X154504518Y-49901354D01*
X154550031Y-49859458D01*
X154610000Y-49844272D01*
X154669969Y-49859458D01*
X154715481Y-49901354D01*
X154804278Y-50037268D01*
X154916525Y-50159200D01*
X154956762Y-50202908D01*
X155134421Y-50341187D01*
X155134424Y-50341189D01*
X155332426Y-50448342D01*
X155545365Y-50521444D01*
X155767431Y-50558500D01*
X155992566Y-50558500D01*
X155992569Y-50558500D01*
X156214635Y-50521444D01*
X156427574Y-50448342D01*
X156625576Y-50341189D01*
X156803240Y-50202906D01*
X156955722Y-50037268D01*
X157044518Y-49901354D01*
X157090031Y-49859458D01*
X157150000Y-49844272D01*
X157209969Y-49859458D01*
X157255481Y-49901354D01*
X157344278Y-50037268D01*
X157456525Y-50159200D01*
X157496762Y-50202908D01*
X157674421Y-50341187D01*
X157674424Y-50341189D01*
X157872426Y-50448342D01*
X158085365Y-50521444D01*
X158307431Y-50558500D01*
X158532566Y-50558500D01*
X158532569Y-50558500D01*
X158754635Y-50521444D01*
X158967574Y-50448342D01*
X159165576Y-50341189D01*
X159343240Y-50202906D01*
X159495722Y-50037268D01*
X159584518Y-49901354D01*
X159630031Y-49859458D01*
X159690000Y-49844272D01*
X159749969Y-49859458D01*
X159795481Y-49901354D01*
X159884278Y-50037268D01*
X159996525Y-50159200D01*
X160036762Y-50202908D01*
X160214421Y-50341187D01*
X160214424Y-50341189D01*
X160412426Y-50448342D01*
X160625365Y-50521444D01*
X160847431Y-50558500D01*
X161072566Y-50558500D01*
X161072569Y-50558500D01*
X161294635Y-50521444D01*
X161507574Y-50448342D01*
X161705576Y-50341189D01*
X161883240Y-50202906D01*
X162035722Y-50037268D01*
X162124518Y-49901354D01*
X162170031Y-49859458D01*
X162230000Y-49844272D01*
X162289969Y-49859458D01*
X162335481Y-49901354D01*
X162424278Y-50037268D01*
X162536525Y-50159200D01*
X162576762Y-50202908D01*
X162754421Y-50341187D01*
X162754424Y-50341189D01*
X162952426Y-50448342D01*
X163165365Y-50521444D01*
X163387431Y-50558500D01*
X163612566Y-50558500D01*
X163612569Y-50558500D01*
X163834635Y-50521444D01*
X164047574Y-50448342D01*
X164245576Y-50341189D01*
X164423240Y-50202906D01*
X164575722Y-50037268D01*
X164698860Y-49848791D01*
X164789296Y-49642616D01*
X164844564Y-49424368D01*
X164863156Y-49200000D01*
X164844564Y-48975632D01*
X164789296Y-48757384D01*
X164698860Y-48551209D01*
X164575722Y-48362732D01*
X164423240Y-48197094D01*
X164423239Y-48197093D01*
X164423237Y-48197091D01*
X164245578Y-48058812D01*
X164047573Y-47951657D01*
X163894510Y-47899111D01*
X163834635Y-47878556D01*
X163612569Y-47841500D01*
X163387431Y-47841500D01*
X163165365Y-47878556D01*
X163165362Y-47878556D01*
X163165362Y-47878557D01*
X162952426Y-47951657D01*
X162754421Y-48058812D01*
X162576762Y-48197091D01*
X162424278Y-48362731D01*
X162335483Y-48498643D01*
X162289969Y-48540541D01*
X162230000Y-48555727D01*
X162170031Y-48540541D01*
X162124517Y-48498643D01*
X162035721Y-48362731D01*
X161954126Y-48274096D01*
X161883240Y-48197094D01*
X161883239Y-48197093D01*
X161883237Y-48197091D01*
X161705578Y-48058812D01*
X161507573Y-47951657D01*
X161354510Y-47899111D01*
X161294635Y-47878556D01*
X161072569Y-47841500D01*
X160847431Y-47841500D01*
X160625365Y-47878556D01*
X160625362Y-47878556D01*
X160625362Y-47878557D01*
X160412426Y-47951657D01*
X160214421Y-48058812D01*
X160036762Y-48197091D01*
X159884278Y-48362731D01*
X159795483Y-48498643D01*
X159749969Y-48540541D01*
X159690000Y-48555727D01*
X159630031Y-48540541D01*
X159584517Y-48498643D01*
X159495721Y-48362731D01*
X159414126Y-48274096D01*
X159343240Y-48197094D01*
X159343239Y-48197093D01*
X159343237Y-48197091D01*
X159165578Y-48058812D01*
X158967573Y-47951657D01*
X158814510Y-47899111D01*
X158754635Y-47878556D01*
X158532569Y-47841500D01*
X158307431Y-47841500D01*
X158085365Y-47878556D01*
X158085362Y-47878556D01*
X158085362Y-47878557D01*
X157872426Y-47951657D01*
X157674421Y-48058812D01*
X157496762Y-48197091D01*
X157344278Y-48362731D01*
X157255483Y-48498643D01*
X157209969Y-48540541D01*
X157150000Y-48555727D01*
X157090031Y-48540541D01*
X157044517Y-48498643D01*
X156955721Y-48362731D01*
X156874126Y-48274096D01*
X156803240Y-48197094D01*
X156803239Y-48197093D01*
X156803237Y-48197091D01*
X156625578Y-48058812D01*
X156427573Y-47951657D01*
X156274510Y-47899111D01*
X156214635Y-47878556D01*
X155992569Y-47841500D01*
X155767431Y-47841500D01*
X155545365Y-47878556D01*
X155545362Y-47878556D01*
X155545362Y-47878557D01*
X155332426Y-47951657D01*
X155134421Y-48058812D01*
X154956762Y-48197091D01*
X154804278Y-48362731D01*
X154715483Y-48498643D01*
X154669969Y-48540541D01*
X154610000Y-48555727D01*
X154550031Y-48540541D01*
X154504517Y-48498643D01*
X154415721Y-48362731D01*
X154334126Y-48274096D01*
X154263240Y-48197094D01*
X154263239Y-48197093D01*
X154263237Y-48197091D01*
X154085578Y-48058812D01*
X153887573Y-47951657D01*
X153734510Y-47899111D01*
X153674635Y-47878556D01*
X153452569Y-47841500D01*
X153227431Y-47841500D01*
X153005365Y-47878556D01*
X153005362Y-47878556D01*
X153005362Y-47878557D01*
X152792426Y-47951657D01*
X152594421Y-48058812D01*
X152416762Y-48197091D01*
X152264278Y-48362731D01*
X152175483Y-48498643D01*
X152129969Y-48540541D01*
X152070000Y-48555727D01*
X152010031Y-48540541D01*
X151964517Y-48498643D01*
X151875721Y-48362731D01*
X151794126Y-48274096D01*
X151723240Y-48197094D01*
X151723239Y-48197093D01*
X151723237Y-48197091D01*
X151545578Y-48058812D01*
X151347573Y-47951657D01*
X151194510Y-47899111D01*
X151134635Y-47878556D01*
X150912569Y-47841500D01*
X150687431Y-47841500D01*
X150465365Y-47878556D01*
X150465362Y-47878556D01*
X150465362Y-47878557D01*
X150252426Y-47951657D01*
X150054421Y-48058812D01*
X149876762Y-48197091D01*
X149724278Y-48362731D01*
X149635483Y-48498643D01*
X149589969Y-48540541D01*
X149530000Y-48555727D01*
X149470031Y-48540541D01*
X149424517Y-48498643D01*
X149335721Y-48362731D01*
X149254126Y-48274096D01*
X149183240Y-48197094D01*
X149183239Y-48197093D01*
X149183237Y-48197091D01*
X149005578Y-48058812D01*
X148807573Y-47951657D01*
X148654510Y-47899111D01*
X148594635Y-47878556D01*
X148372569Y-47841500D01*
X148147431Y-47841500D01*
X147925365Y-47878556D01*
X147925362Y-47878556D01*
X147925362Y-47878557D01*
X147712426Y-47951657D01*
X147514421Y-48058812D01*
X147336758Y-48197094D01*
X147275754Y-48263362D01*
X147222282Y-48297762D01*
X147158820Y-48301672D01*
X147101530Y-48274096D01*
X147064998Y-48222056D01*
X147055688Y-48197094D01*
X147020889Y-48103796D01*
X147020888Y-48103794D01*
X146933261Y-47986738D01*
X146816205Y-47899111D01*
X146726645Y-47865707D01*
X146679201Y-47848011D01*
X146618638Y-47841500D01*
X144821362Y-47841500D01*
X144760799Y-47848011D01*
X144623794Y-47899111D01*
X144506738Y-47986738D01*
X144419111Y-48103794D01*
X144384313Y-48197091D01*
X144368011Y-48240799D01*
X144361500Y-48301362D01*
X144361500Y-50098638D01*
X142675226Y-50098638D01*
X142731722Y-50037268D01*
X142854860Y-49848791D01*
X142945296Y-49642616D01*
X143000564Y-49424368D01*
X143019156Y-49200000D01*
X143000564Y-48975632D01*
X142945296Y-48757384D01*
X142854860Y-48551209D01*
X142731722Y-48362732D01*
X142579240Y-48197094D01*
X142579239Y-48197093D01*
X142579237Y-48197091D01*
X142401578Y-48058812D01*
X142203573Y-47951657D01*
X142050510Y-47899111D01*
X141990635Y-47878556D01*
X141768569Y-47841500D01*
X141543431Y-47841500D01*
X141321365Y-47878556D01*
X141321362Y-47878556D01*
X141321362Y-47878557D01*
X141108426Y-47951657D01*
X140910421Y-48058812D01*
X140732762Y-48197091D01*
X140580278Y-48362731D01*
X140491483Y-48498643D01*
X140445969Y-48540541D01*
X140386000Y-48555727D01*
X140326031Y-48540541D01*
X140280517Y-48498643D01*
X140191721Y-48362731D01*
X140110126Y-48274096D01*
X140039240Y-48197094D01*
X140039239Y-48197093D01*
X140039237Y-48197091D01*
X139861578Y-48058812D01*
X139663573Y-47951657D01*
X139510510Y-47899111D01*
X139450635Y-47878556D01*
X139228569Y-47841500D01*
X139003431Y-47841500D01*
X138781365Y-47878556D01*
X138781361Y-47878557D01*
X138771067Y-47880275D01*
X138770547Y-47877160D01*
X138718757Y-47879830D01*
X138658075Y-47846171D01*
X138246748Y-47434843D01*
X138216026Y-47384732D01*
X138211380Y-47326137D01*
X138233819Y-47271809D01*
X138278462Y-47233573D01*
X138335587Y-47219749D01*
X164200606Y-47168122D01*
X164255821Y-47180743D01*
G37*
%TD.AperFunction*%
%TA.AperFunction,Conductor*%
G36*
X135365969Y-49859458D02*
G01*
X135411481Y-49901354D01*
X135500278Y-50037268D01*
X135612525Y-50159200D01*
X135652762Y-50202908D01*
X135830418Y-50341185D01*
X135830420Y-50341186D01*
X135830424Y-50341189D01*
X135876471Y-50366108D01*
X135924741Y-50412424D01*
X135942500Y-50476921D01*
X135942500Y-50767147D01*
X135940204Y-50787935D01*
X135942438Y-50858986D01*
X135942500Y-50862945D01*
X135942500Y-50890857D01*
X135943007Y-50894873D01*
X135943937Y-50906696D01*
X135945326Y-50950892D01*
X135950977Y-50970341D01*
X135954986Y-50989696D01*
X135957525Y-51009794D01*
X135973801Y-51050903D01*
X135977644Y-51062130D01*
X135989980Y-51104590D01*
X136000294Y-51122030D01*
X136008987Y-51139774D01*
X136016448Y-51158617D01*
X136016449Y-51158619D01*
X136042431Y-51194380D01*
X136048948Y-51204301D01*
X136071458Y-51242363D01*
X136085778Y-51256683D01*
X136098618Y-51271716D01*
X136110526Y-51288105D01*
X136144598Y-51316292D01*
X136153378Y-51324282D01*
X138481751Y-53652655D01*
X138494834Y-53668985D01*
X138546665Y-53717656D01*
X138549477Y-53720381D01*
X138569230Y-53740134D01*
X138571183Y-53741649D01*
X138572424Y-53742612D01*
X138581444Y-53750316D01*
X138613679Y-53780586D01*
X138631435Y-53790347D01*
X138647951Y-53801196D01*
X138663959Y-53813613D01*
X138685987Y-53823145D01*
X138704525Y-53831167D01*
X138715188Y-53836391D01*
X138753935Y-53857693D01*
X138753937Y-53857693D01*
X138753940Y-53857695D01*
X138773574Y-53862736D01*
X138792259Y-53869134D01*
X138810855Y-53877181D01*
X138854530Y-53884098D01*
X138866125Y-53886498D01*
X138908970Y-53897500D01*
X138929224Y-53897500D01*
X138948934Y-53899051D01*
X138968942Y-53902220D01*
X138968942Y-53902219D01*
X138968943Y-53902220D01*
X139012961Y-53898058D01*
X139024819Y-53897500D01*
X147593221Y-53897500D01*
X147655403Y-53913913D01*
X147701386Y-53958875D01*
X147719189Y-54020673D01*
X147704176Y-54083207D01*
X147660257Y-54130187D01*
X147625717Y-54151889D01*
X147496889Y-54280717D01*
X147399956Y-54434985D01*
X147339782Y-54606953D01*
X147334767Y-54651454D01*
X147323081Y-54692014D01*
X147298655Y-54726438D01*
X147109334Y-54915759D01*
X147093014Y-54928835D01*
X147044369Y-54980636D01*
X147041620Y-54983473D01*
X147021868Y-55003226D01*
X147021864Y-55003230D01*
X147021865Y-55003230D01*
X147019379Y-55006433D01*
X147011687Y-55015439D01*
X146981413Y-55047678D01*
X146971652Y-55065434D01*
X146960801Y-55081952D01*
X146948385Y-55097959D01*
X146930824Y-55138539D01*
X146925604Y-55149195D01*
X146904304Y-55187940D01*
X146899267Y-55207559D01*
X146892864Y-55226261D01*
X146884818Y-55244855D01*
X146877901Y-55288524D01*
X146875495Y-55300144D01*
X146864500Y-55342970D01*
X146864500Y-55363224D01*
X146862949Y-55382934D01*
X146859779Y-55402942D01*
X146863941Y-55446961D01*
X146864500Y-55458819D01*
X146864500Y-56629613D01*
X146854909Y-56677831D01*
X146827595Y-56718709D01*
X146474331Y-57071970D01*
X146458017Y-57085040D01*
X146409369Y-57136844D01*
X146406620Y-57139681D01*
X146386868Y-57159434D01*
X146386864Y-57159438D01*
X146386865Y-57159438D01*
X146384379Y-57162641D01*
X146376687Y-57171647D01*
X146346413Y-57203886D01*
X146336652Y-57221642D01*
X146325801Y-57238160D01*
X146313385Y-57254167D01*
X146295824Y-57294747D01*
X146290604Y-57305403D01*
X146269304Y-57344148D01*
X146264267Y-57363767D01*
X146257864Y-57382469D01*
X146249818Y-57401063D01*
X146242901Y-57444732D01*
X146240495Y-57456352D01*
X146229500Y-57499178D01*
X146229500Y-57519432D01*
X146227949Y-57539142D01*
X146224779Y-57559150D01*
X146228941Y-57603169D01*
X146229500Y-57615027D01*
X146229500Y-71110405D01*
X146219909Y-71158623D01*
X146192595Y-71199500D01*
X142065500Y-75326595D01*
X142024623Y-75353909D01*
X141976405Y-75363500D01*
X141385966Y-75363500D01*
X141320601Y-75345219D01*
X141274203Y-75295680D01*
X141260236Y-75229259D01*
X141282753Y-75165229D01*
X141396522Y-75002750D01*
X141396523Y-75002749D01*
X141493284Y-74795243D01*
X141552543Y-74574087D01*
X141572498Y-74346000D01*
X141552543Y-74117913D01*
X141493284Y-73896757D01*
X141419212Y-73737909D01*
X141396522Y-73689249D01*
X141306340Y-73560457D01*
X141265198Y-73501700D01*
X141265197Y-73501699D01*
X141265195Y-73501696D01*
X141103303Y-73339804D01*
X141081158Y-73324297D01*
X140946227Y-73229818D01*
X140906737Y-73184787D01*
X140892500Y-73126607D01*
X140892500Y-71104594D01*
X140902091Y-71056376D01*
X140929405Y-71015499D01*
X142800292Y-69144612D01*
X144711659Y-67233244D01*
X144727980Y-67220169D01*
X144730014Y-67218001D01*
X144730018Y-67218000D01*
X144776660Y-67168329D01*
X144779351Y-67165552D01*
X144799135Y-67145770D01*
X144801621Y-67142564D01*
X144809310Y-67133561D01*
X144839586Y-67101321D01*
X144849342Y-67083571D01*
X144860195Y-67067050D01*
X144872614Y-67051041D01*
X144890175Y-67010454D01*
X144895388Y-66999813D01*
X144916695Y-66961060D01*
X144921733Y-66941434D01*
X144928137Y-66922732D01*
X144936181Y-66904144D01*
X144943096Y-66860482D01*
X144945504Y-66848853D01*
X144956500Y-66806029D01*
X144956500Y-66785776D01*
X144958051Y-66766066D01*
X144961220Y-66746057D01*
X144957059Y-66702039D01*
X144956500Y-66690181D01*
X144956500Y-57338500D01*
X144973381Y-57275500D01*
X145019500Y-57229381D01*
X145082500Y-57212500D01*
X145271638Y-57212500D01*
X145332201Y-57205989D01*
X145469204Y-57154889D01*
X145586261Y-57067261D01*
X145673889Y-56950204D01*
X145724989Y-56813201D01*
X145731500Y-56752638D01*
X145731500Y-54855362D01*
X145724989Y-54794799D01*
X145673889Y-54657796D01*
X145672639Y-54656126D01*
X145586261Y-54540738D01*
X145469205Y-54453111D01*
X145400702Y-54427560D01*
X145332201Y-54402011D01*
X145271638Y-54395500D01*
X143374362Y-54395500D01*
X143313799Y-54402011D01*
X143176794Y-54453111D01*
X143059738Y-54540738D01*
X142972109Y-54657796D01*
X142948741Y-54720449D01*
X142912210Y-54772488D01*
X142854920Y-54800063D01*
X142791460Y-54796154D01*
X142749549Y-54769193D01*
X142748459Y-54770595D01*
X142740220Y-54764182D01*
X142556017Y-54620810D01*
X142470144Y-54574338D01*
X142350726Y-54509712D01*
X142185852Y-54453111D01*
X142129951Y-54433920D01*
X141899712Y-54395500D01*
X141666288Y-54395500D01*
X141436049Y-54433920D01*
X141436046Y-54433920D01*
X141436046Y-54433921D01*
X141215273Y-54509712D01*
X141009984Y-54620809D01*
X140825779Y-54764182D01*
X140667684Y-54935919D01*
X140540016Y-55131330D01*
X140446250Y-55345094D01*
X140388950Y-55571369D01*
X140388949Y-55571374D01*
X140369673Y-55804000D01*
X140388949Y-56036626D01*
X140419256Y-56156308D01*
X140425026Y-56179091D01*
X140424361Y-56243471D01*
X140391977Y-56299117D01*
X138600336Y-58090757D01*
X138584016Y-58103833D01*
X138535370Y-58155635D01*
X138532620Y-58158473D01*
X138512868Y-58178226D01*
X138512864Y-58178230D01*
X138512865Y-58178230D01*
X138510379Y-58181433D01*
X138502687Y-58190439D01*
X138472413Y-58222678D01*
X138462652Y-58240434D01*
X138451801Y-58256952D01*
X138439385Y-58272959D01*
X138421824Y-58313539D01*
X138416604Y-58324195D01*
X138395304Y-58362940D01*
X138390267Y-58382559D01*
X138383864Y-58401261D01*
X138375818Y-58419855D01*
X138368901Y-58463524D01*
X138366495Y-58475144D01*
X138355500Y-58517970D01*
X138355500Y-58538224D01*
X138353949Y-58557934D01*
X138350779Y-58577942D01*
X138354941Y-58621961D01*
X138355500Y-58633819D01*
X138355500Y-61712406D01*
X138345909Y-61760624D01*
X138318597Y-61801498D01*
X136179075Y-63941019D01*
X135763922Y-64356172D01*
X135703235Y-64389832D01*
X135651452Y-64387158D01*
X135650932Y-64390275D01*
X135640639Y-64388557D01*
X135640635Y-64388556D01*
X135418569Y-64351500D01*
X135193431Y-64351500D01*
X134971365Y-64388556D01*
X134971362Y-64388556D01*
X134971362Y-64388557D01*
X134758426Y-64461657D01*
X134560421Y-64568812D01*
X134382762Y-64707091D01*
X134230278Y-64872731D01*
X134141483Y-65008643D01*
X134095969Y-65050541D01*
X134036000Y-65065727D01*
X133976031Y-65050541D01*
X133930517Y-65008643D01*
X133841721Y-64872731D01*
X133785226Y-64811362D01*
X133689240Y-64707094D01*
X133689239Y-64707093D01*
X133689237Y-64707091D01*
X133511578Y-64568812D01*
X133313573Y-64461657D01*
X133125444Y-64397073D01*
X133100635Y-64388556D01*
X132878569Y-64351500D01*
X132653431Y-64351500D01*
X132431365Y-64388556D01*
X132431362Y-64388556D01*
X132431362Y-64388557D01*
X132218426Y-64461657D01*
X132020421Y-64568812D01*
X131842762Y-64707091D01*
X131690278Y-64872731D01*
X131601483Y-65008643D01*
X131555969Y-65050541D01*
X131496000Y-65065727D01*
X131436031Y-65050541D01*
X131390517Y-65008643D01*
X131301721Y-64872731D01*
X131245226Y-64811362D01*
X131149240Y-64707094D01*
X131149239Y-64707093D01*
X131149237Y-64707091D01*
X130971578Y-64568812D01*
X130773573Y-64461657D01*
X130585444Y-64397073D01*
X130560635Y-64388556D01*
X130338569Y-64351500D01*
X130113431Y-64351500D01*
X129891365Y-64388556D01*
X129891362Y-64388556D01*
X129891362Y-64388557D01*
X129678426Y-64461657D01*
X129480421Y-64568812D01*
X129302762Y-64707091D01*
X129150278Y-64872731D01*
X129061483Y-65008643D01*
X129015969Y-65050541D01*
X128956000Y-65065727D01*
X128896031Y-65050541D01*
X128850517Y-65008643D01*
X128761721Y-64872731D01*
X128705226Y-64811362D01*
X128609240Y-64707094D01*
X128609239Y-64707093D01*
X128609237Y-64707091D01*
X128431578Y-64568812D01*
X128233573Y-64461657D01*
X128045444Y-64397073D01*
X128020635Y-64388556D01*
X127798569Y-64351500D01*
X127573431Y-64351500D01*
X127351365Y-64388556D01*
X127351362Y-64388556D01*
X127351362Y-64388557D01*
X127311412Y-64402272D01*
X127252334Y-64407783D01*
X127197284Y-64385644D01*
X127158471Y-64340765D01*
X127144500Y-64283099D01*
X127144500Y-63770594D01*
X127154091Y-63722376D01*
X127181405Y-63681499D01*
X130832500Y-60030405D01*
X130873377Y-60003091D01*
X130921595Y-59993500D01*
X133698147Y-59993500D01*
X133718935Y-59995795D01*
X133721907Y-59995701D01*
X133721909Y-59995702D01*
X133789985Y-59993562D01*
X133793945Y-59993500D01*
X133821852Y-59993500D01*
X133821856Y-59993500D01*
X133825865Y-59992993D01*
X133837699Y-59992061D01*
X133881889Y-59990673D01*
X133901338Y-59985021D01*
X133920698Y-59981012D01*
X133940797Y-59978474D01*
X133981915Y-59962193D01*
X133993117Y-59958357D01*
X134035593Y-59946018D01*
X134053039Y-59935699D01*
X134070780Y-59927009D01*
X134089617Y-59919552D01*
X134125392Y-59893558D01*
X134135303Y-59887048D01*
X134173362Y-59864542D01*
X134187691Y-59850212D01*
X134202719Y-59837377D01*
X134219107Y-59825472D01*
X134247303Y-59791386D01*
X134255272Y-59782630D01*
X135591658Y-58446244D01*
X135607979Y-58433170D01*
X135610014Y-58431002D01*
X135610018Y-58431000D01*
X135656677Y-58381311D01*
X135659368Y-58378534D01*
X135679134Y-58358770D01*
X135681605Y-58355583D01*
X135689312Y-58346559D01*
X135719586Y-58314321D01*
X135729343Y-58296570D01*
X135740199Y-58280043D01*
X135752613Y-58264041D01*
X135770172Y-58223461D01*
X135775392Y-58212809D01*
X135789376Y-58187372D01*
X135796695Y-58174060D01*
X135801732Y-58154439D01*
X135808138Y-58135730D01*
X135816181Y-58117145D01*
X135823096Y-58073476D01*
X135825496Y-58061881D01*
X135836500Y-58019030D01*
X135836500Y-57998769D01*
X135838051Y-57979058D01*
X135841219Y-57959055D01*
X135837059Y-57915046D01*
X135836500Y-57903189D01*
X135836500Y-56647315D01*
X135850737Y-56589135D01*
X135890230Y-56544102D01*
X135982776Y-56479301D01*
X136132301Y-56329776D01*
X136253589Y-56156558D01*
X136342956Y-55964910D01*
X136397686Y-55760655D01*
X136416116Y-55550000D01*
X136397686Y-55339345D01*
X136342956Y-55135090D01*
X136253589Y-54943442D01*
X136248321Y-54935919D01*
X136150457Y-54796154D01*
X136132301Y-54770224D01*
X136132300Y-54770223D01*
X136132298Y-54770220D01*
X135982779Y-54620701D01*
X135809559Y-54499411D01*
X135617909Y-54410043D01*
X135413655Y-54355314D01*
X135203000Y-54336884D01*
X134992344Y-54355314D01*
X134788090Y-54410043D01*
X134596440Y-54499411D01*
X134423220Y-54620701D01*
X134273701Y-54770220D01*
X134152411Y-54943440D01*
X134060136Y-55141326D01*
X134035037Y-55177171D01*
X133662210Y-55550000D01*
X134035033Y-55922822D01*
X134060133Y-55958668D01*
X134152411Y-56156559D01*
X134213268Y-56243471D01*
X134273699Y-56329776D01*
X134423224Y-56479301D01*
X134515770Y-56544102D01*
X134555263Y-56589135D01*
X134569500Y-56647315D01*
X134569500Y-57624405D01*
X134559909Y-57672623D01*
X134532595Y-57713500D01*
X133556500Y-58689595D01*
X133515623Y-58716909D01*
X133467405Y-58726500D01*
X130690854Y-58726500D01*
X130670064Y-58724204D01*
X130599002Y-58726438D01*
X130595044Y-58726500D01*
X130567142Y-58726500D01*
X130563134Y-58727006D01*
X130551313Y-58727936D01*
X130507108Y-58729325D01*
X130487651Y-58734978D01*
X130468301Y-58738986D01*
X130448202Y-58741525D01*
X130407093Y-58757802D01*
X130395865Y-58761646D01*
X130353408Y-58773981D01*
X130335964Y-58784297D01*
X130318217Y-58792990D01*
X130299384Y-58800446D01*
X130263611Y-58826437D01*
X130253693Y-58832951D01*
X130215639Y-58855457D01*
X130201312Y-58869783D01*
X130186283Y-58882618D01*
X130169894Y-58894525D01*
X130141701Y-58928604D01*
X130133713Y-58937381D01*
X126122336Y-62948757D01*
X126106016Y-62961833D01*
X126057370Y-63013635D01*
X126054620Y-63016473D01*
X126034868Y-63036226D01*
X126034864Y-63036230D01*
X126034865Y-63036230D01*
X126032379Y-63039433D01*
X126024687Y-63048439D01*
X125994413Y-63080678D01*
X125984652Y-63098434D01*
X125973801Y-63114952D01*
X125961385Y-63130959D01*
X125943824Y-63171539D01*
X125938604Y-63182195D01*
X125917304Y-63220940D01*
X125912267Y-63240559D01*
X125905864Y-63259261D01*
X125897818Y-63277855D01*
X125890901Y-63321524D01*
X125888495Y-63333144D01*
X125877500Y-63375970D01*
X125877500Y-63396224D01*
X125875949Y-63415934D01*
X125872779Y-63435942D01*
X125876941Y-63479961D01*
X125877500Y-63491819D01*
X125877500Y-64349738D01*
X125861051Y-64411983D01*
X125816000Y-64457977D01*
X125754108Y-64475711D01*
X125703958Y-64463563D01*
X125703449Y-64465048D01*
X125588945Y-64425739D01*
X125480635Y-64388556D01*
X125258569Y-64351500D01*
X125033431Y-64351500D01*
X124811365Y-64388556D01*
X124811362Y-64388556D01*
X124811362Y-64388557D01*
X124598426Y-64461657D01*
X124400421Y-64568812D01*
X124222762Y-64707091D01*
X124070278Y-64872731D01*
X123981483Y-65008643D01*
X123935969Y-65050541D01*
X123876000Y-65065727D01*
X123816031Y-65050541D01*
X123770517Y-65008643D01*
X123681721Y-64872731D01*
X123625226Y-64811362D01*
X123529240Y-64707094D01*
X123529239Y-64707093D01*
X123529237Y-64707091D01*
X123351578Y-64568812D01*
X123153573Y-64461657D01*
X122965444Y-64397073D01*
X122908218Y-64356924D01*
X122881199Y-64292451D01*
X122892705Y-64223499D01*
X122939194Y-64171292D01*
X123006356Y-64151900D01*
X123064143Y-64151900D01*
X123084931Y-64154195D01*
X123087903Y-64154101D01*
X123087905Y-64154102D01*
X123155981Y-64151962D01*
X123159941Y-64151900D01*
X123187848Y-64151900D01*
X123187852Y-64151900D01*
X123191861Y-64151393D01*
X123203695Y-64150461D01*
X123247885Y-64149073D01*
X123267334Y-64143421D01*
X123286694Y-64139412D01*
X123306793Y-64136874D01*
X123347911Y-64120593D01*
X123359113Y-64116757D01*
X123401589Y-64104418D01*
X123419035Y-64094099D01*
X123436776Y-64085409D01*
X123455613Y-64077952D01*
X123491388Y-64051958D01*
X123501299Y-64045448D01*
X123539358Y-64022942D01*
X123553687Y-64008612D01*
X123568715Y-63995777D01*
X123585103Y-63983872D01*
X123613299Y-63949786D01*
X123621268Y-63941030D01*
X129547858Y-58014440D01*
X129564179Y-58001366D01*
X129566214Y-57999198D01*
X129566218Y-57999196D01*
X129612877Y-57949507D01*
X129615568Y-57946730D01*
X129635334Y-57926966D01*
X129637805Y-57923779D01*
X129645512Y-57914755D01*
X129675786Y-57882517D01*
X129685543Y-57864766D01*
X129696399Y-57848239D01*
X129708813Y-57832237D01*
X129726372Y-57791657D01*
X129731592Y-57781005D01*
X129740293Y-57765177D01*
X129752895Y-57742256D01*
X129757932Y-57722635D01*
X129764338Y-57703926D01*
X129767658Y-57696255D01*
X129772381Y-57685341D01*
X129779296Y-57641673D01*
X129781704Y-57630049D01*
X129785561Y-57615027D01*
X129792700Y-57587226D01*
X129792700Y-57566972D01*
X129794251Y-57547262D01*
X129797420Y-57527253D01*
X129793259Y-57483235D01*
X129792700Y-57471377D01*
X129792700Y-56565297D01*
X132646912Y-56565297D01*
X132696691Y-56600153D01*
X132888261Y-56689484D01*
X133092431Y-56744191D01*
X133303000Y-56762613D01*
X133513568Y-56744191D01*
X133717740Y-56689483D01*
X133909304Y-56600156D01*
X133959087Y-56565297D01*
X133959087Y-56565296D01*
X133303001Y-55909210D01*
X133303000Y-55909210D01*
X132646912Y-56565296D01*
X132646912Y-56565297D01*
X129792700Y-56565297D01*
X129792700Y-55549999D01*
X132090386Y-55549999D01*
X132108808Y-55760568D01*
X132163515Y-55964738D01*
X132252846Y-56156308D01*
X132287701Y-56206086D01*
X132287702Y-56206086D01*
X132943790Y-55550000D01*
X132943790Y-55549999D01*
X132287703Y-54893912D01*
X132287702Y-54893912D01*
X132252845Y-54943693D01*
X132163515Y-55135262D01*
X132108808Y-55339431D01*
X132090386Y-55549999D01*
X129792700Y-55549999D01*
X129792700Y-54534703D01*
X132646912Y-54534703D01*
X133302999Y-55190790D01*
X133303000Y-55190790D01*
X133959086Y-54534702D01*
X133959086Y-54534701D01*
X133909308Y-54499846D01*
X133717738Y-54410515D01*
X133513568Y-54355808D01*
X133303000Y-54337386D01*
X133092431Y-54355808D01*
X132888262Y-54410515D01*
X132696693Y-54499845D01*
X132646912Y-54534702D01*
X132646912Y-54534703D01*
X129792700Y-54534703D01*
X129792700Y-52487790D01*
X129802291Y-52439572D01*
X129829605Y-52398695D01*
X130376695Y-51851605D01*
X130417572Y-51824291D01*
X130465790Y-51814700D01*
X131970947Y-51814700D01*
X131991735Y-51816995D01*
X131994707Y-51816901D01*
X131994709Y-51816902D01*
X132062785Y-51814762D01*
X132066745Y-51814700D01*
X132094652Y-51814700D01*
X132094656Y-51814700D01*
X132098665Y-51814193D01*
X132110499Y-51813261D01*
X132154689Y-51811873D01*
X132174138Y-51806221D01*
X132193498Y-51802212D01*
X132213597Y-51799674D01*
X132254715Y-51783393D01*
X132265917Y-51779557D01*
X132308393Y-51767218D01*
X132325839Y-51756899D01*
X132343580Y-51748209D01*
X132362417Y-51740752D01*
X132398192Y-51714758D01*
X132408103Y-51708248D01*
X132446162Y-51685742D01*
X132460491Y-51671412D01*
X132475519Y-51658577D01*
X132491907Y-51646672D01*
X132520103Y-51612586D01*
X132528072Y-51603830D01*
X133578077Y-50553826D01*
X133638767Y-50520166D01*
X133690546Y-50522842D01*
X133691067Y-50519725D01*
X133701361Y-50521442D01*
X133701365Y-50521444D01*
X133923431Y-50558500D01*
X134148566Y-50558500D01*
X134148569Y-50558500D01*
X134370635Y-50521444D01*
X134583574Y-50448342D01*
X134781576Y-50341189D01*
X134959240Y-50202906D01*
X135111722Y-50037268D01*
X135200518Y-49901354D01*
X135246031Y-49859458D01*
X135306000Y-49844272D01*
X135365969Y-49859458D01*
G37*
%TD.AperFunction*%
%TA.AperFunction,Conductor*%
G36*
X142912208Y-56835509D02*
G01*
X142948742Y-56887550D01*
X142972111Y-56950206D01*
X143059738Y-57067261D01*
X143176794Y-57154888D01*
X143176795Y-57154888D01*
X143176796Y-57154889D01*
X143313799Y-57205989D01*
X143374362Y-57212500D01*
X143563500Y-57212500D01*
X143626500Y-57229381D01*
X143672619Y-57275500D01*
X143689500Y-57338500D01*
X143689500Y-66411406D01*
X143679909Y-66459624D01*
X143652595Y-66500501D01*
X139870336Y-70282757D01*
X139854016Y-70295833D01*
X139805370Y-70347635D01*
X139802620Y-70350473D01*
X139782868Y-70370226D01*
X139782864Y-70370230D01*
X139782865Y-70370230D01*
X139780379Y-70373433D01*
X139772687Y-70382439D01*
X139742413Y-70414678D01*
X139732652Y-70432434D01*
X139721801Y-70448952D01*
X139709385Y-70464959D01*
X139691824Y-70505539D01*
X139686604Y-70516195D01*
X139665304Y-70554940D01*
X139660267Y-70574559D01*
X139653864Y-70593261D01*
X139645818Y-70611855D01*
X139638901Y-70655524D01*
X139636495Y-70667144D01*
X139625500Y-70709970D01*
X139625500Y-70730224D01*
X139623949Y-70749934D01*
X139620779Y-70769942D01*
X139624941Y-70813961D01*
X139625500Y-70825819D01*
X139625500Y-73126607D01*
X139611263Y-73184787D01*
X139571772Y-73229818D01*
X139503659Y-73277511D01*
X139414696Y-73339804D01*
X139252804Y-73501696D01*
X139121477Y-73689249D01*
X139024715Y-73896756D01*
X138972300Y-74092375D01*
X138965457Y-74117913D01*
X138945502Y-74346000D01*
X138950643Y-74404757D01*
X138965457Y-74574087D01*
X139024715Y-74795243D01*
X139121477Y-75002750D01*
X139235247Y-75165229D01*
X139257764Y-75229259D01*
X139243797Y-75295680D01*
X139197399Y-75345219D01*
X139132034Y-75363500D01*
X138288990Y-75363500D01*
X138240772Y-75353909D01*
X138199895Y-75326595D01*
X133098818Y-70225517D01*
X133093994Y-70219298D01*
X133085542Y-70210846D01*
X133071212Y-70196516D01*
X133058378Y-70181489D01*
X133046472Y-70165101D01*
X133046471Y-70165100D01*
X133012400Y-70136913D01*
X133003621Y-70128925D01*
X132108404Y-69233707D01*
X132081091Y-69192830D01*
X132071500Y-69144612D01*
X132071500Y-67352595D01*
X132081091Y-67304377D01*
X132108404Y-67263500D01*
X132153904Y-67218000D01*
X132308076Y-67063826D01*
X132368773Y-67030165D01*
X132420545Y-67032844D01*
X132421066Y-67029725D01*
X132431362Y-67031443D01*
X132431365Y-67031444D01*
X132653431Y-67068500D01*
X132878566Y-67068500D01*
X132878569Y-67068500D01*
X133100635Y-67031444D01*
X133313574Y-66958342D01*
X133511576Y-66851189D01*
X133689240Y-66712906D01*
X133841722Y-66547268D01*
X133930518Y-66411354D01*
X133976031Y-66369458D01*
X134036000Y-66354272D01*
X134095969Y-66369458D01*
X134141481Y-66411354D01*
X134230278Y-66547268D01*
X134359295Y-66687417D01*
X134382762Y-66712908D01*
X134560421Y-66851187D01*
X134560424Y-66851189D01*
X134758426Y-66958342D01*
X134971365Y-67031444D01*
X135193431Y-67068500D01*
X135418566Y-67068500D01*
X135418569Y-67068500D01*
X135640635Y-67031444D01*
X135853574Y-66958342D01*
X136051576Y-66851189D01*
X136229240Y-66712906D01*
X136381722Y-66547268D01*
X136470818Y-66410896D01*
X136516329Y-66368999D01*
X136576299Y-66353813D01*
X136636268Y-66368999D01*
X136681782Y-66410897D01*
X136770678Y-66546962D01*
X136923096Y-66712533D01*
X137100697Y-66850766D01*
X137298631Y-66957883D01*
X137511485Y-67030955D01*
X137592000Y-67044391D01*
X138100000Y-67044391D01*
X138180514Y-67030955D01*
X138393368Y-66957883D01*
X138591302Y-66850766D01*
X138768903Y-66712533D01*
X138921323Y-66546960D01*
X139010217Y-66410899D01*
X139055730Y-66369000D01*
X139115700Y-66353814D01*
X139175669Y-66369000D01*
X139221183Y-66410898D01*
X139310278Y-66547268D01*
X139439295Y-66687417D01*
X139462762Y-66712908D01*
X139640421Y-66851187D01*
X139640424Y-66851189D01*
X139838426Y-66958342D01*
X140051365Y-67031444D01*
X140273431Y-67068500D01*
X140498566Y-67068500D01*
X140498569Y-67068500D01*
X140720635Y-67031444D01*
X140933574Y-66958342D01*
X141131576Y-66851189D01*
X141309240Y-66712906D01*
X141461722Y-66547268D01*
X141584860Y-66358791D01*
X141675296Y-66152616D01*
X141730564Y-65934368D01*
X141749156Y-65710000D01*
X141730564Y-65485632D01*
X141675296Y-65267384D01*
X141584860Y-65061209D01*
X141461722Y-64872732D01*
X141309240Y-64707094D01*
X141309239Y-64707093D01*
X141309237Y-64707091D01*
X141131578Y-64568812D01*
X140933573Y-64461657D01*
X140745444Y-64397073D01*
X140720635Y-64388556D01*
X140498569Y-64351500D01*
X140273431Y-64351500D01*
X140051365Y-64388556D01*
X140051362Y-64388556D01*
X140051362Y-64388557D01*
X139838426Y-64461657D01*
X139640421Y-64568812D01*
X139462762Y-64707091D01*
X139310275Y-64872735D01*
X139221182Y-65009101D01*
X139175669Y-65050999D01*
X139115700Y-65066185D01*
X139055731Y-65050999D01*
X139010217Y-65009101D01*
X138921321Y-64873037D01*
X138768903Y-64707466D01*
X138591302Y-64569233D01*
X138393368Y-64462116D01*
X138180514Y-64389044D01*
X138100000Y-64375609D01*
X138100000Y-67044391D01*
X137592000Y-67044391D01*
X137592000Y-64372092D01*
X137601591Y-64323874D01*
X137628902Y-64283000D01*
X139377658Y-62534244D01*
X139393979Y-62521170D01*
X139396014Y-62519002D01*
X139396018Y-62519000D01*
X139442676Y-62469312D01*
X139445367Y-62466535D01*
X139465135Y-62446769D01*
X139467611Y-62443576D01*
X139475316Y-62434553D01*
X139505586Y-62402321D01*
X139515345Y-62384567D01*
X139526198Y-62368045D01*
X139538614Y-62352040D01*
X139556174Y-62311459D01*
X139561388Y-62300815D01*
X139582695Y-62262060D01*
X139587732Y-62242439D01*
X139594138Y-62223730D01*
X139602181Y-62205144D01*
X139603664Y-62195781D01*
X139609096Y-62161477D01*
X139611504Y-62149853D01*
X139613773Y-62141018D01*
X139622500Y-62107030D01*
X139622500Y-62086776D01*
X139624051Y-62067066D01*
X139627220Y-62047057D01*
X139623059Y-62003039D01*
X139622500Y-61991181D01*
X139622500Y-58912594D01*
X139632091Y-58864376D01*
X139659402Y-58823501D01*
X141285724Y-57197178D01*
X141346418Y-57163518D01*
X141415728Y-57167103D01*
X141436049Y-57174080D01*
X141666288Y-57212500D01*
X141899709Y-57212500D01*
X141899712Y-57212500D01*
X142129951Y-57174080D01*
X142350727Y-57098287D01*
X142556017Y-56987190D01*
X142740220Y-56843818D01*
X142740221Y-56843816D01*
X142748459Y-56837405D01*
X142749550Y-56838806D01*
X142791451Y-56811847D01*
X142854915Y-56807934D01*
X142912208Y-56835509D01*
G37*
%TD.AperFunction*%
%TD*%
M02*
