M48
; DRILL file {KiCad 7.0.1-0} date 2023 March 23, Thursday 13:45:07
; FORMAT={-:-/ absolute / inch / decimal}
; #@! TF.CreationDate,2023-03-23T13:45:07+11:00
; #@! TF.GenerationSoftware,Kicad,Pcbnew,7.0.1-0
; #@! TF.FileFunction,Plated,1,2,PTH
FMAT,2
INCH
; #@! TA.AperFunction,Plated,PTH,ViaDrill
T1C0.0157
; #@! TA.AperFunction,Plated,PTH,ComponentDrill
T2C0.0276
; #@! TA.AperFunction,Plated,PTH,ComponentDrill
T3C0.0315
; #@! TA.AperFunction,Plated,PTH,ComponentDrill
T4C0.0354
; #@! TA.AperFunction,Plated,PTH,ComponentDrill
T5C0.0394
%
G90
G05
T1
X4.981Y-2.053
X5.262Y-3.547
X5.832Y-2.157
X5.862Y-2.187
X5.897Y-2.227
X6.382Y-3.637
T2
X5.2481Y-2.187
X5.323Y-2.187
T3
X4.542Y-2.947
X4.81Y-2.1304
X4.81Y-2.3304
X4.842Y-2.947
X4.91Y-2.2304
X5.522Y-2.927
X5.822Y-2.927
X6.067Y-2.202
X6.167Y-2.202
X6.267Y-2.202
X6.367Y-2.202
T4
X5.582Y-2.197
X5.682Y-2.197
T5
X4.027Y-2.587
X4.127Y-2.587
X4.227Y-2.587
X4.287Y-1.982
X4.287Y-2.082
X4.287Y-2.182
X4.287Y-2.282
X4.327Y-2.587
X4.387Y-1.982
X4.387Y-2.082
X4.387Y-2.182
X4.387Y-2.282
X4.427Y-2.587
X4.527Y-2.587
X4.627Y-2.587
X4.677Y-1.937
X4.727Y-2.587
X4.777Y-1.937
X4.827Y-2.587
X4.877Y-1.937
X4.927Y-2.587
X4.977Y-1.937
X5.027Y-2.587
X5.037Y-3.837
X5.077Y-1.937
X5.127Y-2.587
X5.137Y-3.837
X5.177Y-1.937
X5.227Y-2.587
X5.237Y-3.837
X5.277Y-1.937
X5.327Y-2.587
X5.337Y-3.837
X5.377Y-1.937
X5.427Y-2.587
X5.437Y-3.837
X5.477Y-1.937
X5.527Y-2.587
X5.537Y-3.837
X5.577Y-1.937
X5.637Y-3.837
X5.737Y-1.937
X5.737Y-3.837
X5.837Y-1.937
X5.937Y-1.937
X5.937Y-3.837
X6.037Y-1.937
X6.037Y-3.837
X6.137Y-1.937
X6.137Y-3.837
X6.237Y-1.937
X6.237Y-3.837
X6.337Y-1.937
X6.337Y-3.837
X6.437Y-1.937
X6.437Y-3.837
T0
M30
